<svg xmlns="http://www.w3.org/2000/svg" width="241" height="66" viewBox="0 0 241 66" fill="none"><g clip-path="url(#clip0_223_13972)"><path d="M65.3876 13.8828L65.2181 51.9326C65.2101 53.7126 64.8515 55.4737 64.1629 57.1152C63.4743 58.7566 62.4691 60.2464 61.2048 61.4994C59.9404 62.7525 58.4416 63.7442 56.794 64.4179C55.1463 65.0917 53.3821 65.4343 51.6021 65.4263L13.5495 65.2596C11.7695 65.2516 10.0084 64.893 8.36694 64.2044C6.72546 63.5158 5.23567 62.5106 3.98266 61.2463C2.72965 59.9819 1.73795 58.4831 1.06417 56.8355C0.390401 55.1878 0.0477563 53.4236 0.0558026 51.6436L0.225308 13.591C0.233318 11.811 0.591862 10.0499 1.28047 8.40845C1.96907 6.76696 2.97426 5.27718 4.23862 4.02417C5.50299 2.77115 7.00178 1.77945 8.64941 1.10568C10.297 0.431905 12.0613 0.0892602 13.8413 0.0973065L51.8938 0.266812C53.6739 0.274822 55.435 0.633366 57.0764 1.32197C58.7179 2.01058 60.2077 3.01576 61.4607 4.28013C62.7137 5.54449 63.7054 7.04328 64.3792 8.69091C65.053 10.3385 65.3956 12.1028 65.3876 13.8828ZM29.0051 25.0313C24.4497 23.7827 20.5409 24.7293 17.2787 27.8712C15.9522 29.1475 14.9704 30.8482 14.3331 32.973C14.0479 33.9215 13.92 35.5285 13.9497 37.7942C13.9775 39.9635 13.9802 41.5826 13.958 42.6515C13.9441 43.2378 13.8385 43.9186 13.9024 44.516C13.908 44.5703 13.9335 44.6206 13.9741 44.6571C14.0147 44.6935 14.0674 44.7136 14.122 44.7133L21.8386 44.7494C21.8838 44.7494 21.9272 44.7317 21.9595 44.7C21.9917 44.6683 22.0102 44.6251 22.0109 44.5799C22.0331 42.3754 22.035 39.6041 22.0165 36.2658C22.0072 34.8579 22.5194 33.8094 23.5531 33.1203C25.2649 31.9782 27.5351 32.6784 28.4076 34.5041C28.6262 34.9617 28.7263 35.9203 28.7078 37.3801C28.6874 39.1252 28.654 41.5261 28.6077 44.5827C28.6073 44.6063 28.6117 44.6297 28.6207 44.6516C28.6296 44.6735 28.6428 44.6934 28.6596 44.7103C28.6764 44.7271 28.6965 44.7404 28.7186 44.7495C28.7407 44.7586 28.7644 44.7633 28.7883 44.7633L36.6439 44.7995C36.6646 44.7995 36.6844 44.7913 36.699 44.7767C36.7135 44.7621 36.7217 44.7423 36.7217 44.7217C36.8125 37.7969 36.8412 32.5321 36.8079 28.9271C36.7968 27.8378 36.9163 27.0561 37.1663 26.5818C38.389 24.2476 41.6985 24.1393 43.0601 26.4595C43.3065 26.8819 43.4288 27.6035 43.4269 28.6242C43.4177 34.0891 43.4149 39.4522 43.4186 44.7133C43.4186 44.7398 43.4294 44.7653 43.4487 44.7841C43.468 44.8028 43.4941 44.8134 43.5214 44.8134L51.3298 44.8495C51.3644 44.8495 51.3976 44.8357 51.4221 44.8112C51.4466 44.7867 51.4604 44.7535 51.4604 44.7189C51.5122 36.6475 51.5465 31.6077 51.5632 29.5996C51.5798 27.634 51.452 26.1631 51.1797 25.1869C49.443 18.9402 42.9267 15.1861 36.6801 17.234C33.0158 18.4344 30.501 21.0104 29.1357 24.9618C29.1268 24.9878 29.1083 25.0094 29.0841 25.0223C29.0598 25.0352 29.0316 25.0384 29.0051 25.0313Z" fill="#04004F"></path><path d="M187.951 18.551H182.187C182.128 18.551 182.079 18.5995 182.079 18.6594V46.8084C182.079 46.8682 182.128 46.9168 182.187 46.9168H187.951C188.011 46.9168 188.059 46.8682 188.059 46.8084V18.6594C188.059 18.5995 188.011 18.551 187.951 18.551Z" fill="#04004F"></path><path d="M91.2713 35.6849C91.3065 35.6849 91.3519 35.6331 91.4075 35.5293C94.6272 29.4197 96.953 25.0246 98.385 22.344C98.4075 22.3015 98.4413 22.266 98.4825 22.2414C98.5236 22.2169 98.5707 22.2043 98.6184 22.2051L105.029 22.2329C105.079 22.2329 105.127 22.2531 105.163 22.2891C105.198 22.325 105.218 22.3738 105.218 22.4246L105.11 46.6166C105.11 46.6254 105.108 46.6341 105.105 46.6422C105.101 46.6503 105.096 46.6576 105.09 46.6638C105.084 46.67 105.077 46.6749 105.068 46.6783C105.06 46.6816 105.052 46.6833 105.043 46.6833L99.063 46.6583C99.0171 46.6576 98.9732 46.6388 98.941 46.6061C98.9088 46.5733 98.8907 46.5292 98.8907 46.4833L98.9463 34.265C98.9473 34.2449 98.9414 34.2251 98.9297 34.2087C98.918 34.1924 98.9011 34.1805 98.8817 34.1751C98.8624 34.1696 98.8417 34.1708 98.8232 34.1786C98.8046 34.1863 98.7893 34.2001 98.7796 34.2178L91.3464 46.6305C91.3442 46.6342 91.3392 46.6379 91.3319 46.6413C91.3246 46.6447 91.3152 46.6477 91.3047 46.65C91.2973 46.65 91.2908 46.65 91.2852 46.65C91.2778 46.65 91.2704 46.65 91.263 46.65C91.2524 46.6477 91.243 46.6447 91.2357 46.6413C91.2284 46.6379 91.2234 46.6342 91.2213 46.6305L83.7603 34.2344C83.7506 34.2168 83.7352 34.203 83.7167 34.1952C83.6981 34.1875 83.6775 34.1862 83.6581 34.1917C83.6388 34.1972 83.6219 34.2091 83.6102 34.2254C83.5984 34.2418 83.5926 34.2616 83.5936 34.2817L83.6769 46.4999C83.6769 46.5459 83.6589 46.59 83.6267 46.6228C83.5944 46.6555 83.5506 46.6743 83.5047 46.675L77.5247 46.7139C77.516 46.7139 77.5073 46.7122 77.4992 46.7088C77.4911 46.7055 77.4838 46.7006 77.4776 46.6944C77.4714 46.6882 77.4665 46.6808 77.4631 46.6727C77.4598 46.6646 77.458 46.656 77.458 46.6472L77.2969 22.4552C77.2969 22.43 77.3018 22.4051 77.3112 22.3818C77.3207 22.3586 77.3347 22.3374 77.3522 22.3196C77.3698 22.3018 77.3906 22.2877 77.4135 22.2781C77.4364 22.2684 77.461 22.2635 77.4858 22.2635L83.8965 22.2218C83.9442 22.221 83.9912 22.2336 84.0324 22.2581C84.0736 22.2826 84.1073 22.3181 84.1299 22.3607C85.5674 25.0376 87.9035 29.4271 91.1379 35.5293C91.1917 35.6331 91.2361 35.6849 91.2713 35.6849Z" fill="#04004F"></path><path d="M112.321 31.1223C113.974 31.1223 115.314 29.7824 115.314 28.1296C115.314 26.4767 113.974 25.1368 112.321 25.1368C110.668 25.1368 109.328 26.4767 109.328 28.1296C109.328 29.7824 110.668 31.1223 112.321 31.1223Z" fill="#04004F"></path><path d="M177.661 35.9972C177.666 37.4316 177.368 38.8531 176.785 40.1804C176.202 41.5078 175.344 42.715 174.261 43.7331C173.179 44.7512 171.892 45.5603 170.474 46.1142C169.057 46.6681 167.537 46.956 166 46.9613C162.898 46.9721 159.918 45.8317 157.717 43.7908C155.516 41.75 154.274 38.9759 154.264 36.0789C154.259 34.6444 154.556 33.2229 155.14 31.8956C155.723 30.5682 156.58 29.3611 157.663 28.3429C158.746 27.3248 160.033 26.5157 161.45 25.9618C162.868 25.4079 164.388 25.1201 165.924 25.1147C169.027 25.1039 172.006 26.2443 174.207 28.2852C176.408 30.326 177.651 33.1001 177.661 35.9972ZM160.252 36.0364C160.251 36.764 160.397 37.4848 160.683 38.1576C160.968 38.8303 161.388 39.4419 161.917 39.9573C162.446 40.4727 163.074 40.882 163.766 41.1616C164.458 41.4413 165.2 41.5859 165.95 41.5872C166.699 41.5885 167.442 41.4465 168.135 41.1693C168.828 40.892 169.458 40.485 169.989 39.9714C170.519 39.4578 170.941 38.8477 171.229 38.1759C171.517 37.5042 171.666 36.7839 171.667 36.0563C171.668 35.3287 171.522 34.6079 171.236 33.9351C170.951 33.2624 170.531 32.6508 170.002 32.1354C169.473 31.6199 168.845 31.2107 168.153 30.931C167.461 30.6514 166.719 30.5068 165.969 30.5055C165.22 30.5042 164.477 30.6462 163.784 30.9234C163.091 31.2007 162.461 31.6077 161.93 32.1213C161.4 32.6349 160.978 33.245 160.69 33.9167C160.402 34.5885 160.253 35.3088 160.252 36.0364Z" fill="#04004F"></path><path d="M195.234 31.1279C196.888 31.1279 198.229 29.7867 198.229 28.1324C198.229 26.478 196.888 25.1368 195.234 25.1368C193.579 25.1368 192.238 26.478 192.238 28.1324C192.238 29.7867 193.579 31.1279 195.234 31.1279Z" fill="#04004F"></path><path d="M235.926 30.9332C234.589 30.0292 233.114 29.7328 231.503 30.044C230.163 30.3024 229.713 31.7418 230.744 32.6366C231.033 32.8867 231.398 33.0738 231.839 33.1979C232.832 33.4795 234.25 33.8435 236.093 34.29C236.534 34.3974 237.106 34.6623 237.808 35.0847C239.789 36.2768 240.264 38.1803 240.2 40.4005C240.078 44.7132 236.135 46.8612 232.258 46.9584C229.141 47.0362 226.548 46.311 224.028 44.4047C223.998 44.3828 223.978 44.3499 223.972 44.3131C223.967 44.2762 223.976 44.2383 223.997 44.2074L226.687 40.5422C226.701 40.5231 226.719 40.5071 226.739 40.4951C226.759 40.4831 226.782 40.4755 226.805 40.4726C226.829 40.4697 226.853 40.4717 226.875 40.4784C226.898 40.4852 226.919 40.4965 226.937 40.5117C228.875 42.1326 231.058 42.605 233.487 41.9288C233.868 41.8232 234.19 41.5602 234.451 41.1397C235.298 39.7753 234.084 38.9305 232.839 38.6332C229.999 37.9496 225.834 37.3661 225 34.0093C223.875 29.4938 226.084 26.0203 230.694 25.3173C233.841 24.8394 236.666 25.6461 239.169 27.7376C239.183 27.7491 239.195 27.7635 239.203 27.7797C239.211 27.796 239.215 27.8139 239.216 27.8321C239.217 27.8504 239.214 27.8688 239.207 27.886C239.201 27.9032 239.19 27.9189 239.178 27.9321L236.204 30.9054C236.168 30.9416 236.121 30.9641 236.07 30.9692C236.02 30.9743 235.969 30.9616 235.926 30.9332Z" fill="#04004F"></path><path d="M137.68 27.6904L134.798 31.6196C134.788 31.6338 134.774 31.6458 134.759 31.6549C134.744 31.664 134.727 31.67 134.71 31.6726C134.693 31.6752 134.675 31.6743 134.658 31.67C134.642 31.6656 134.626 31.658 134.612 31.6474C130.858 28.838 124.675 30.8221 124.947 36.0267C125.114 39.214 127.204 41.7038 130.513 41.8288C132.027 41.8862 133.401 41.45 134.637 40.52C134.674 40.492 134.721 40.4798 134.768 40.486C134.814 40.4923 134.856 40.5164 134.884 40.5534L137.924 44.4103C137.946 44.4385 137.957 44.4739 137.954 44.5094C137.95 44.545 137.934 44.578 137.908 44.602C137.532 44.9503 137.182 45.2069 136.86 45.3717C132.258 47.7198 126.529 47.5614 122.549 44.2074C119.723 41.826 118.648 38.3526 119.123 34.6485C120.271 25.6591 130.85 22.7914 137.633 27.4264C137.653 27.4403 137.671 27.4583 137.685 27.4793C137.699 27.5002 137.708 27.5237 137.712 27.5484C137.717 27.573 137.716 27.5983 137.711 27.6227C137.705 27.6471 137.694 27.6701 137.68 27.6904Z" fill="#04004F"></path><path d="M151.421 30.8333C149.637 30.472 148.413 30.9324 147.748 32.2143C147.433 32.8201 147.296 33.8742 147.336 35.3766C147.351 35.9379 147.353 39.7744 147.342 46.8863C147.342 46.8978 147.34 46.9092 147.335 46.9199C147.331 46.9305 147.324 46.9401 147.316 46.9482C147.307 46.9562 147.298 46.9625 147.287 46.9667C147.276 46.9708 147.265 46.9728 147.253 46.9724L141.312 46.9474C141.291 46.9474 141.27 46.9389 141.255 46.9238C141.24 46.9087 141.231 46.8882 141.231 46.8668C141.23 42.8876 141.23 38.4036 141.234 33.4148C141.234 33.2425 141.297 32.7729 141.423 32.0059C142.268 26.8541 146.675 24.9423 151.421 25.2868C151.469 25.2897 151.513 25.3105 151.546 25.3451C151.578 25.3798 151.596 25.4255 151.596 25.473L151.571 30.711C151.571 30.7295 151.567 30.7478 151.559 30.7645C151.551 30.7813 151.54 30.796 151.525 30.8077C151.511 30.8194 151.494 30.8278 151.476 30.8322C151.458 30.8366 151.439 30.837 151.421 30.8333Z" fill="#04004F"></path><path d="M211.192 25.2119C211.222 25.2119 211.312 25.2156 211.464 25.223C214.313 25.3675 217.216 26.2817 218.778 28.7521C219.845 30.436 220.095 32.395 220.095 34.6792C220.093 39.7588 220.096 43.7908 220.104 46.7752C220.104 46.8268 220.083 46.8763 220.046 46.9127C220.009 46.9492 219.959 46.9697 219.906 46.9697L214.335 46.9447C214.288 46.9447 214.242 46.9257 214.209 46.8918C214.176 46.8579 214.157 46.812 214.157 46.7641C214.159 39.6708 214.154 35.4776 214.143 34.1846C214.126 32.2672 213.385 30.5638 211.195 30.5638C209.008 30.5666 208.269 32.2728 208.255 34.1901C208.246 35.4832 208.247 39.6764 208.26 46.7696C208.26 46.7934 208.256 46.8169 208.247 46.8388C208.238 46.8607 208.225 46.8806 208.208 46.8974C208.192 46.9141 208.172 46.9274 208.151 46.9365C208.129 46.9456 208.106 46.9503 208.083 46.9503L202.511 46.9836C202.485 46.9836 202.46 46.9786 202.436 46.9688C202.412 46.959 202.39 46.9447 202.372 46.9266C202.353 46.9086 202.339 46.8871 202.329 46.8635C202.319 46.8399 202.314 46.8146 202.314 46.7891C202.316 43.8047 202.312 39.7727 202.303 34.6931C202.3 32.4089 202.547 30.4499 203.612 28.7632C205.17 26.2901 208.071 25.3731 210.92 25.223C211.072 25.2156 211.162 25.2119 211.192 25.2119Z" fill="#04004F"></path><path d="M115.213 33.4843H109.45C109.392 33.4843 109.345 33.5315 109.345 33.5898V46.8557C109.345 46.914 109.392 46.9613 109.45 46.9613H115.213C115.272 46.9613 115.319 46.914 115.319 46.8557V33.5898C115.319 33.5315 115.272 33.4843 115.213 33.4843Z" fill="#04004F"></path><path d="M198.071 33.4843H192.413C192.346 33.4843 192.291 33.539 192.291 33.6065V46.839C192.291 46.9066 192.346 46.9613 192.413 46.9613H198.071C198.138 46.9613 198.193 46.9066 198.193 46.839V33.6065C198.193 33.539 198.138 33.4843 198.071 33.4843Z" fill="#04004F"></path></g><defs><clipPath id="clip0_223_13972"><rect width="240.364" height="65.5791" fill="white"></rect></clipPath></defs></svg>