<svg xmlns="http://www.w3.org/2000/svg" width="160" height="54" viewBox="0 0 160 54" fill="none"><g clip-path="url(#clip0_2019_546)"><mask id="mask0_2019_546" style="mask-type:luminance" maskUnits="userSpaceOnUse" x="0" y="0" width="160" height="54"><path d="M0 0H160V53.3507H0V0Z" fill="white"></path></mask><g mask="url(#mask0_2019_546)"><path d="M19.0916 6.59643C19.1079 6.60199 19.1212 6.59973 19.1317 6.58966" stroke="#60060D" stroke-width="0.104201"></path></g><path d="M19.0916 6.59643C19.108 6.60198 19.1213 6.59973 19.1318 6.58965C29.5961 4.00652 40.1521 10.4388 42.6123 20.9464C42.6149 20.9579 42.6149 20.9699 42.6122 20.9814C42.6095 20.993 42.6042 21.0038 42.5967 21.0131C40.4007 23.6806 37.9858 26.1596 35.2964 28.2769C32.4158 30.5448 29.1064 32.4121 25.5068 33.2035C22.3432 33.8985 19.2412 33.6731 16.2006 32.5273C14.0245 31.7069 12.1375 30.5152 10.5394 28.9521C7.86612 26.3372 6.17233 22.7949 5.52212 19.1239C5.50337 19.0182 5.54974 18.9155 5.58829 18.8108C6.5188 16.277 7.86577 14.0629 9.62919 12.1686C11.4183 10.2467 13.5008 8.75685 15.8765 7.69887C16.8974 7.24386 17.9691 6.87638 19.0916 6.59643Z" fill="#C00C1A"></path><path d="M19.1317 6.58966C19.1212 6.59973 19.1079 6.60199 19.0916 6.59643C19.1051 6.59817 19.1185 6.59591 19.1317 6.58966Z" fill="black"></path><path d="M81.3691 13.5862C80.4521 12.378 79.0506 11.8018 77.5496 12.1368C76.4472 12.3822 75.5235 13.2382 75.1348 14.2796C74.9248 14.8413 74.8727 15.4592 74.9311 16.0599C75.0816 17.6151 76.2601 18.8332 77.8112 19.0484C79.2554 19.2484 80.549 18.7087 81.4144 17.563C81.4174 17.559 81.4211 17.5557 81.4254 17.5532C81.4297 17.5507 81.4345 17.5491 81.4394 17.5486C81.4443 17.548 81.4493 17.5484 81.4541 17.5498C81.4588 17.5512 81.4632 17.5536 81.4671 17.5568L82.2496 18.2143C82.2569 18.2205 82.2616 18.2293 82.2627 18.2388C82.2638 18.2483 82.2611 18.2578 82.2553 18.2653C81.6426 19.0722 80.8481 19.6314 79.8717 19.9429C78.6661 20.3274 77.2151 20.2488 76.0981 19.6408C74.6898 18.8744 73.838 17.5422 73.7557 15.9172C73.6775 14.3771 74.1595 13.0402 75.3437 12.0352C76.1599 11.3426 77.1078 10.9787 78.1873 10.9437C79.328 10.9068 80.3533 11.217 81.2633 11.8742C81.6468 12.151 81.9686 12.4884 82.2288 12.8865C82.2343 12.8949 82.2366 12.905 82.235 12.915C82.2335 12.9251 82.2283 12.9342 82.2204 12.9407L81.4222 13.593C81.4183 13.5961 81.4138 13.5984 81.4089 13.5997C81.4041 13.6011 81.399 13.6015 81.3941 13.6008C81.3891 13.6002 81.3844 13.5986 81.3801 13.5961C81.3758 13.5935 81.372 13.5902 81.3691 13.5862Z" fill="black"></path><path d="M57.3499 16.0464H53.681C53.6739 16.0464 53.667 16.0492 53.6619 16.0543C53.6568 16.0594 53.6539 16.0663 53.6539 16.0735V20.0138C53.6539 20.021 53.6511 20.0279 53.646 20.033C53.6409 20.0381 53.634 20.0409 53.6269 20.0409H52.5515C52.5443 20.0409 52.5374 20.0381 52.5323 20.033C52.5273 20.0279 52.5244 20.021 52.5244 20.0138V11.1307C52.5244 11.1235 52.5273 11.1167 52.5323 11.1116C52.5374 11.1065 52.5443 11.1036 52.5515 11.1036H57.9074C57.9146 11.1036 57.9215 11.1065 57.9266 11.1116C57.9317 11.1167 57.9345 11.1235 57.9345 11.1307V12.1727C57.9345 12.1799 57.9317 12.1868 57.9266 12.1919C57.9215 12.197 57.9146 12.1998 57.9074 12.1998H53.681C53.6739 12.1998 53.667 12.2027 53.6619 12.2078C53.6568 12.2128 53.6539 12.2197 53.6539 12.2269V14.9137C53.6539 14.9209 53.6568 14.9278 53.6619 14.9329C53.667 14.938 53.6739 14.9408 53.681 14.9408H57.3499C57.3571 14.9408 57.364 14.9437 57.3691 14.9488C57.3742 14.9538 57.377 14.9607 57.377 14.9679V16.0193C57.377 16.0265 57.3742 16.0334 57.3691 16.0385C57.364 16.0435 57.3571 16.0464 57.3499 16.0464Z" fill="black"></path><path d="M65.5353 11.1036C65.619 11.1036 65.7022 11.1066 65.7849 11.1125C65.7936 11.1131 65.8021 11.1162 65.8092 11.1215C65.8163 11.1267 65.8218 11.1339 65.825 11.1422L69.4116 20.0065C69.4133 20.0109 69.4139 20.0156 69.4134 20.0202C69.4129 20.0249 69.4113 20.0293 69.4088 20.0332C69.4062 20.037 69.4027 20.0402 69.3987 20.0423C69.3946 20.0445 69.3901 20.0456 69.3855 20.0456H68.2195C68.2107 20.0456 68.2021 20.0429 68.1948 20.0379C68.1875 20.0329 68.1818 20.0258 68.1784 20.0175L67.2374 17.6928C67.2338 17.6835 67.2274 17.6756 67.2192 17.67C67.2111 17.6644 67.2014 17.6615 67.1916 17.6615C67.1249 17.6615 66.5704 17.661 65.528 17.6599C64.4853 17.6585 63.9306 17.6579 63.8639 17.6579C63.8541 17.6578 63.8445 17.6607 63.8364 17.6661C63.8282 17.6716 63.8218 17.6794 63.8181 17.6886L62.8719 20.0112C62.8685 20.0195 62.8628 20.0266 62.8555 20.0316C62.8482 20.0366 62.8396 20.0393 62.8308 20.0394L61.6648 20.0368C61.6602 20.0368 61.6557 20.0356 61.6516 20.0335C61.6476 20.0313 61.6441 20.0282 61.6415 20.0243C61.639 20.0204 61.6374 20.016 61.6369 20.0114C61.6364 20.0067 61.637 20.002 61.6387 19.9977L65.2456 11.1417C65.2489 11.1334 65.2543 11.1262 65.2614 11.121C65.2686 11.1157 65.277 11.1126 65.2857 11.112C65.3684 11.1061 65.4516 11.1033 65.5353 11.1036ZM64.2156 16.5585C64.2144 16.5617 64.2141 16.5652 64.2145 16.5686C64.2149 16.5719 64.2162 16.5752 64.2181 16.578C64.22 16.5808 64.2226 16.5831 64.2256 16.5847C64.2286 16.5863 64.232 16.5871 64.2354 16.5872H66.8123C66.8157 16.5871 66.819 16.5863 66.8221 16.5847C66.8251 16.5831 66.8276 16.5808 66.8296 16.578C66.8315 16.5752 66.8328 16.5719 66.8332 16.5686C66.8336 16.5652 66.8332 16.5617 66.8321 16.5585L65.5436 13.234C65.542 13.2301 65.5393 13.2267 65.5358 13.2243C65.5323 13.2219 65.5281 13.2207 65.5238 13.2207C65.5196 13.2207 65.5154 13.2219 65.5119 13.2243C65.5084 13.2267 65.5056 13.2301 65.504 13.234L64.2156 16.5585Z" fill="black"></path><path d="M90.7349 19.0906C91.8483 19.0911 92.611 18.4638 92.7704 17.364C92.7951 17.1945 92.8076 16.9757 92.808 16.7075C92.8093 14.5381 92.8102 12.6823 92.8106 11.1401C92.8106 11.131 92.8142 11.1222 92.8206 11.1158C92.8271 11.1093 92.8358 11.1057 92.8449 11.1057H93.9161C93.9218 11.1057 93.9274 11.1068 93.9326 11.1091C93.9378 11.1114 93.9425 11.1148 93.9464 11.119C93.9503 11.1232 93.9532 11.1282 93.9551 11.1336C93.957 11.139 93.9577 11.1448 93.9573 11.1505C93.9528 11.2057 93.9503 11.2531 93.95 11.2927C93.943 12.2903 93.9403 14.2659 93.9417 17.2197C93.942 17.3951 93.9147 17.6165 93.8599 17.884C93.5374 19.4532 92.2479 20.1993 90.7338 20.1982C89.2203 20.1967 87.9319 19.449 87.612 17.8787C87.5575 17.6113 87.5305 17.3899 87.5312 17.2145C87.5371 14.2607 87.5373 12.2851 87.5318 11.2875C87.5318 11.2479 87.5295 11.2005 87.525 11.1453C87.5246 11.1396 87.5254 11.1339 87.5273 11.1285C87.5292 11.1232 87.5322 11.1183 87.5361 11.1141C87.5399 11.11 87.5446 11.1067 87.5498 11.1044C87.5549 11.1022 87.5605 11.101 87.5661 11.101L88.6373 11.1026C88.6418 11.1026 88.6463 11.1035 88.6505 11.1052C88.6547 11.1069 88.6584 11.1095 88.6616 11.1126C88.6648 11.1158 88.6674 11.1196 88.6691 11.1238C88.6708 11.128 88.6717 11.1324 88.6717 11.137C88.6696 12.6791 88.6675 14.5349 88.6655 16.7044C88.6655 16.9725 88.6776 17.1914 88.7019 17.3609C88.8598 18.4607 89.6215 19.0896 90.7349 19.0906Z" fill="black"></path><path d="M105.952 20.0414H100.063C100.053 20.0414 100.044 20.0377 100.038 20.0311C100.031 20.0244 100.027 20.0154 100.027 20.006V11.1391C100.027 11.1297 100.031 11.1207 100.038 11.114C100.044 11.1074 100.053 11.1036 100.063 11.1036H101.121C101.131 11.1036 101.14 11.1074 101.147 11.114C101.153 11.1207 101.157 11.1297 101.157 11.1391V18.9098C101.157 18.9145 101.158 18.9191 101.16 18.9234C101.161 18.9277 101.164 18.9316 101.167 18.9349C101.171 18.9382 101.174 18.9408 101.179 18.9426C101.183 18.9443 101.188 18.9453 101.192 18.9453H105.952C105.961 18.9453 105.97 18.949 105.977 18.9556C105.983 18.9623 105.987 18.9713 105.987 18.9807V20.006C105.987 20.0154 105.983 20.0244 105.977 20.0311C105.97 20.0377 105.961 20.0414 105.952 20.0414Z" fill="black"></path><path d="M118.586 15.565C118.586 16.5054 118.414 17.4453 117.917 18.2481C117.43 19.0348 116.748 19.565 115.871 19.8387C115.347 20.0023 114.863 20.0362 114.25 20.0362C113.226 20.0355 112.223 20.0355 111.24 20.0362C111.235 20.0362 111.23 20.0352 111.225 20.0331C111.22 20.0311 111.215 20.0282 111.212 20.0244C111.208 20.0207 111.205 20.0163 111.203 20.0114C111.201 20.0065 111.2 20.0013 111.2 19.9961C111.202 19.787 111.202 18.311 111.201 15.5681C111.2 12.8248 111.199 11.3487 111.197 11.1396C111.197 11.1344 111.198 11.1292 111.2 11.1244C111.202 11.1195 111.205 11.1151 111.208 11.1114C111.212 11.1077 111.216 11.1047 111.221 11.1027C111.226 11.1006 111.231 11.0995 111.237 11.0994C112.219 11.0994 113.223 11.0987 114.246 11.0974C114.86 11.0968 115.344 11.1302 115.868 11.2933C116.745 11.5663 117.428 12.0959 117.915 12.8823C118.413 13.6847 118.586 14.6245 118.586 15.565ZM112.33 12.2232V18.9129C112.33 18.9207 112.332 18.9283 112.335 18.9355C112.338 18.9426 112.342 18.9491 112.347 18.9546C112.353 18.96 112.359 18.9644 112.367 18.9673C112.374 18.9703 112.381 18.9718 112.389 18.9718H114.523C115.286 18.9718 116.018 18.6416 116.558 18.0538C117.097 17.466 117.401 16.6687 117.401 15.8374V15.2987C117.401 14.4674 117.097 13.6702 116.558 13.0824C116.018 12.4946 115.286 12.1644 114.523 12.1644H112.389C112.381 12.1644 112.374 12.1659 112.367 12.1689C112.359 12.1718 112.353 12.1761 112.347 12.1816C112.342 12.1871 112.338 12.1936 112.335 12.2007C112.332 12.2079 112.33 12.2155 112.33 12.2232Z" fill="black"></path><path d="M126.847 17.6594C125.805 17.6584 125.25 17.6577 125.184 17.6573C125.174 17.6573 125.164 17.6603 125.156 17.6658C125.148 17.6714 125.141 17.6793 125.138 17.6886L124.192 20.0107C124.188 20.019 124.182 20.0261 124.175 20.0311C124.168 20.0361 124.159 20.0388 124.15 20.0388L122.984 20.0362C122.98 20.0363 122.975 20.0351 122.971 20.033C122.967 20.0308 122.964 20.0276 122.961 20.0238C122.959 20.0199 122.957 20.0155 122.956 20.0108C122.956 20.0062 122.957 20.0015 122.958 19.9972L126.565 11.1422C126.568 11.1339 126.574 11.1267 126.581 11.1215C126.588 11.1162 126.597 11.1131 126.605 11.1125C126.688 11.1066 126.771 11.1036 126.855 11.1036C126.938 11.104 127.021 11.1071 127.104 11.113C127.113 11.1135 127.121 11.1166 127.129 11.1219C127.136 11.1271 127.141 11.1344 127.145 11.1427L130.731 20.006C130.732 20.0104 130.733 20.0151 130.732 20.0197C130.732 20.0243 130.73 20.0288 130.728 20.0326C130.725 20.0365 130.722 20.0396 130.718 20.0418C130.714 20.044 130.709 20.0451 130.705 20.0451H129.539C129.53 20.0451 129.521 20.0424 129.514 20.0374C129.507 20.0324 129.501 20.0253 129.497 20.017L128.556 17.6922C128.553 17.6832 128.546 17.6754 128.538 17.6699C128.53 17.6645 128.521 17.6615 128.511 17.6615C128.444 17.6615 127.89 17.6608 126.847 17.6594ZM125.535 16.5585C125.534 16.5618 125.533 16.5653 125.534 16.5687C125.534 16.5722 125.535 16.5755 125.537 16.5783C125.539 16.5812 125.542 16.5836 125.545 16.5852C125.548 16.5868 125.552 16.5877 125.555 16.5877H128.132C128.135 16.5877 128.139 16.5868 128.142 16.5852C128.145 16.5836 128.148 16.5812 128.149 16.5783C128.151 16.5755 128.153 16.5722 128.153 16.5687C128.153 16.5653 128.153 16.5618 128.152 16.5585L126.863 13.2335C126.862 13.2296 126.859 13.2262 126.855 13.2238C126.852 13.2214 126.848 13.2202 126.843 13.2202C126.839 13.2202 126.835 13.2214 126.831 13.2238C126.828 13.2262 126.825 13.2296 126.824 13.2335L125.535 16.5585Z" fill="black"></path><path d="M135.945 15.566C135.944 12.8217 135.943 11.3448 135.942 11.1354C135.942 11.1302 135.943 11.125 135.945 11.1201C135.947 11.1152 135.949 11.1108 135.953 11.1071C135.957 11.1033 135.961 11.1004 135.966 11.0984C135.971 11.0963 135.976 11.0953 135.982 11.0953C136.965 11.0956 137.969 11.0953 138.993 11.0942C139.606 11.0937 140.091 11.1276 140.615 11.2912C141.493 11.5645 142.175 12.0947 142.663 12.8818C143.161 13.6847 143.333 14.6251 143.333 15.566C143.333 16.5064 143.161 17.4468 142.663 18.2497C142.176 19.0368 141.493 19.5671 140.615 19.8408C140.091 20.0044 139.607 20.0378 138.993 20.0378C137.969 20.0367 136.965 20.0364 135.982 20.0367C135.977 20.0367 135.972 20.0357 135.967 20.0337C135.962 20.0317 135.957 20.0287 135.954 20.025C135.95 20.0212 135.947 20.0168 135.945 20.0119C135.943 20.0071 135.942 20.0019 135.942 19.9966C135.944 19.7875 135.945 18.3107 135.945 15.566ZM137.077 12.2134L137.066 18.9202C137.066 18.9269 137.067 18.9335 137.07 18.9397C137.072 18.9459 137.076 18.9516 137.081 18.9563C137.085 18.961 137.091 18.9648 137.097 18.9674C137.103 18.97 137.11 18.9713 137.117 18.9713L139.256 18.9749C140.023 18.9762 140.758 18.6475 141.301 18.061C141.844 17.4746 142.149 16.6785 142.151 15.8479L142.152 15.3039C142.153 14.8926 142.079 14.4851 141.934 14.1048C141.79 13.7245 141.577 13.3788 141.31 13.0874C141.042 12.7961 140.724 12.5648 140.373 12.4068C140.023 12.2487 139.647 12.1671 139.268 12.1665L137.128 12.1628C137.115 12.1628 137.102 12.1681 137.092 12.1776C137.083 12.1871 137.077 12.2 137.077 12.2134Z" fill="black"></path><path d="M154.48 12.1196C154.486 12.1269 154.489 12.1318 154.488 12.1342C154.484 12.1609 154.47 12.1743 154.444 12.1743C153.018 12.1753 151.585 12.1755 150.144 12.1748C150.136 12.1748 150.129 12.1777 150.124 12.1829C150.119 12.1881 150.116 12.1951 150.116 12.2024V14.9023C150.116 14.9155 150.121 14.9283 150.131 14.9376C150.14 14.947 150.153 14.9523 150.166 14.9523H154.115C154.122 14.9523 154.13 14.9554 154.135 14.9608C154.141 14.9663 154.144 14.9737 154.144 14.9815V16.0026C154.144 16.0065 154.143 16.0104 154.142 16.014C154.14 16.0176 154.138 16.0209 154.135 16.0236C154.133 16.0264 154.129 16.0286 154.126 16.0301C154.122 16.0316 154.119 16.0323 154.115 16.0323H150.157C150.151 16.0323 150.146 16.0334 150.141 16.0354C150.136 16.0375 150.132 16.0405 150.128 16.0442C150.124 16.048 150.121 16.0525 150.119 16.0574C150.117 16.0623 150.116 16.0676 150.116 16.073V18.9281C150.116 18.9387 150.12 18.9489 150.128 18.9564C150.135 18.964 150.146 18.9682 150.156 18.9682H154.434C154.447 18.9682 154.46 18.9734 154.469 18.9827C154.478 18.992 154.483 19.0045 154.483 19.0177V20.0128C154.483 20.0204 154.48 20.0277 154.475 20.0331C154.469 20.0384 154.462 20.0414 154.454 20.0414H149.015C149.008 20.0414 149.001 20.0385 148.996 20.0334C148.99 20.0282 148.988 20.0212 148.988 20.0138V11.1266C148.988 11.1205 148.99 11.1147 148.994 11.1104C148.998 11.1061 149.004 11.1036 149.01 11.1036H154.437C154.447 11.1036 154.456 11.1076 154.464 11.1148C154.471 11.1219 154.475 11.1316 154.475 11.1417V12.1034C154.475 12.1095 154.477 12.1152 154.48 12.1196Z" fill="black"></path><path d="M42.8326 22.2083C42.835 22.205 42.8383 22.2026 42.8421 22.2012C42.846 22.1999 42.8501 22.1997 42.854 22.2007C42.8579 22.2017 42.8614 22.2038 42.8641 22.2069C42.8668 22.2099 42.8685 22.2136 42.8691 22.2177C43.1956 24.2301 43.2121 26.2275 42.9186 28.2097C42.0756 33.9038 38.6969 38.9851 33.7531 41.948C30.3155 44.0086 26.296 44.9558 22.2936 44.65C16.8695 44.2363 11.8626 41.5255 8.50841 37.233C8.50722 37.2311 8.50668 37.2289 8.50687 37.2267C8.50707 37.2245 8.50798 37.2225 8.50947 37.2209C8.51096 37.2193 8.51295 37.2182 8.51511 37.2178C8.51728 37.2175 8.5195 37.2178 8.52143 37.2189C11.7496 39.4071 15.8285 39.3889 19.4865 38.5672C20.5889 38.3196 21.6912 37.9971 22.7933 37.5997C25.3587 36.6744 27.8277 35.4204 30.1644 33.9282C35.0358 30.8173 39.32 26.7926 42.8326 22.2083Z" fill="#C00C1A"></path><path d="M56.3387 41.5193C56.3387 41.5237 56.3369 41.5279 56.3338 41.531C56.3307 41.5342 56.3264 41.5359 56.322 41.5359H52.5458C52.537 41.5359 52.5285 41.5325 52.5222 41.5263C52.516 41.5202 52.5125 41.5118 52.5125 41.5031V22.5219C52.5125 22.514 52.5156 22.5065 52.5212 22.5009C52.5267 22.4954 52.5343 22.4922 52.5421 22.4922C55.3771 22.4853 57.7913 22.486 59.7846 22.4943C61.035 22.499 62.4152 22.7746 63.453 23.4035C65.128 24.4184 66.1283 26.2836 66.2622 28.2384C66.3878 30.0733 65.8861 31.7921 64.6122 33.1316C63.3128 34.4972 61.3492 34.9567 59.5241 34.9666C58.5516 34.9718 57.5054 34.9718 56.3856 34.9666C56.3732 34.9666 56.3612 34.9715 56.3524 34.9803C56.3436 34.9891 56.3387 35.0011 56.3387 35.0135V41.5193ZM56.3246 26.0611L56.3528 31.4837C56.3528 31.4867 56.3534 31.4896 56.3545 31.4924C56.3557 31.4951 56.3574 31.4976 56.3595 31.4997C56.3616 31.5018 56.3642 31.5034 56.367 31.5045C56.3697 31.5056 56.3727 31.5062 56.3757 31.5061L59.6893 31.4889C60.0431 31.4871 60.3932 31.4181 60.7194 31.2861C61.0457 31.1541 61.3417 30.9615 61.5907 30.7193C61.8397 30.4772 62.0367 30.1902 62.1704 29.8749C62.3042 29.5595 62.3721 29.2219 62.3703 28.8813L62.3693 28.601C62.3675 28.2604 62.2961 27.9235 62.159 27.6095C62.022 27.2956 61.822 27.0107 61.5705 26.7712C61.319 26.5316 61.021 26.3422 60.6934 26.2135C60.3658 26.0849 60.015 26.0196 59.6611 26.0215L56.347 26.0387C56.3411 26.0387 56.3354 26.0411 56.3312 26.0453C56.327 26.0495 56.3246 26.0552 56.3246 26.0611Z" fill="black"></path><path d="M72.0027 29.2705C72.0026 29.2736 72.0036 29.2766 72.0054 29.2791C72.0072 29.2817 72.0098 29.2835 72.0128 29.2844C72.0157 29.2853 72.0189 29.2852 72.0218 29.2841C72.0247 29.283 72.0272 29.2809 72.0288 29.2783C72.1431 29.1081 72.2205 28.9929 72.2612 28.9329C72.9708 27.8799 73.9966 27.2729 75.2668 27.1323C76.0362 27.0475 76.7953 27.1375 77.5441 27.4022C77.55 27.4043 77.555 27.4083 77.5584 27.4134C77.5618 27.4186 77.5633 27.4247 77.5629 27.4308L77.256 30.8705C77.2555 30.8752 77.254 30.8797 77.2516 30.8837C77.2491 30.8878 77.2458 30.8912 77.2419 30.8938C77.2379 30.8964 77.2335 30.8981 77.2288 30.8987C77.2241 30.8994 77.2194 30.899 77.2149 30.8976C76.276 30.6011 75.2236 30.4818 74.2801 30.8319C73.4909 31.1254 72.9204 31.6846 72.5686 32.5095C72.2091 33.3525 72.1465 34.2586 72.1486 35.2063C72.1525 37.4056 72.1525 39.5078 72.1486 41.513C72.1486 41.5188 72.1463 41.5244 72.1422 41.5285C72.1381 41.5326 72.1326 41.5349 72.1267 41.5349L68.5303 41.5354C68.526 41.5354 68.5219 41.5337 68.5188 41.5307C68.5158 41.5276 68.5141 41.5235 68.5141 41.5192L68.511 27.5142C68.511 27.5074 68.5137 27.5009 68.5185 27.4961C68.5233 27.4913 68.5297 27.4886 68.5365 27.4886L71.9642 27.4876C71.9743 27.4876 71.984 27.4916 71.9911 27.4987C71.9982 27.5059 72.0022 27.5155 72.0022 27.5256L72.0027 29.2705Z" fill="black"></path><path d="M133.486 29.2778C133.6 29.1076 133.678 28.9924 133.718 28.9323C134.429 27.8794 135.455 27.2724 136.726 27.1323C137.495 27.0475 138.254 27.1377 139.003 27.4027C139.009 27.4048 139.014 27.4088 139.017 27.4139C139.021 27.4191 139.022 27.4252 139.022 27.4313L138.714 30.8715C138.714 30.8762 138.712 30.8807 138.71 30.8848C138.707 30.8888 138.704 30.8922 138.7 30.8948C138.696 30.8974 138.692 30.8991 138.687 30.8998C138.682 30.9004 138.678 30.9 138.673 30.8986C137.734 30.6022 136.681 30.4823 135.737 30.8324C134.948 31.1256 134.378 31.6848 134.025 32.5101C133.665 33.353 133.603 34.2591 133.604 35.2073C133.608 37.407 133.607 39.5096 133.603 41.5151C133.603 41.5209 133.601 41.5265 133.596 41.5306C133.592 41.5347 133.587 41.537 133.581 41.537H129.984C129.98 41.537 129.976 41.5353 129.973 41.5322C129.969 41.5292 129.968 41.5251 129.968 41.5208V27.5121C129.968 27.5053 129.97 27.4988 129.975 27.494C129.98 27.4892 129.987 27.4866 129.993 27.4866H133.422C133.432 27.4866 133.442 27.4906 133.449 27.4977C133.456 27.5048 133.46 27.5145 133.46 27.5246V29.2699C133.46 29.273 133.461 29.2761 133.463 29.2786C133.465 29.2811 133.467 29.283 133.47 29.2839C133.473 29.2848 133.476 29.2847 133.479 29.2836C133.482 29.2824 133.484 29.2804 133.486 29.2778Z" fill="black"></path><path d="M90.4644 37.3705C90.4664 37.3692 90.4686 37.3683 90.471 37.3679C90.4733 37.3674 90.4758 37.3675 90.4781 37.368C90.4804 37.3686 90.4827 37.3696 90.4846 37.371C90.4865 37.3724 90.4882 37.3742 90.4894 37.3763L91.9294 39.8703C91.935 39.88 91.9367 39.8914 91.9343 39.9022C91.9319 39.9131 91.9255 39.9227 91.9164 39.9292C90.4628 40.9799 88.8352 41.5988 87.0336 41.786C85.4878 41.947 83.8513 41.8319 82.4097 41.2666C79.9865 40.3168 78.4433 37.9467 78.2093 35.3735C78.0421 33.5365 78.3656 31.6692 79.4212 30.1583C80.1647 29.0939 81.1806 28.2238 82.38 27.7174C83.7257 27.1495 85.259 27.0166 86.6934 27.2068C89.04 27.5173 91.101 28.9704 91.9914 31.1727C92.2717 31.8656 92.4411 32.6202 92.4994 33.4364C92.5543 34.2033 92.5208 34.9789 92.3989 35.7632C92.3975 35.7715 92.3933 35.779 92.387 35.7845C92.3807 35.7899 92.3727 35.7929 92.3645 35.7929H81.8986C81.8951 35.7929 81.8917 35.7937 81.8886 35.7952C81.8854 35.7967 81.8827 35.7989 81.8806 35.8017C81.8784 35.8044 81.8769 35.8077 81.8761 35.8111C81.8754 35.8145 81.8754 35.8181 81.8762 35.8216C82.0321 36.4548 82.3096 37.0128 82.7087 37.4956C83.299 38.2093 84.1972 38.6017 85.133 38.7199C85.6748 38.7883 86.2038 38.7899 86.7199 38.7246C88.0825 38.5516 89.3307 38.1003 90.4644 37.3705ZM88.9795 33.0337C88.9684 32.9951 88.9429 32.8958 88.9029 32.7357C88.5836 31.4488 87.6301 30.499 86.3135 30.2359C84.2181 29.8181 82.3706 30.9632 81.8746 33.0483C81.8736 33.0527 81.8736 33.0573 81.8746 33.0617C81.8756 33.0661 81.8775 33.0702 81.8803 33.0738C81.8831 33.0773 81.8867 33.0802 81.8907 33.0822C81.8948 33.0842 81.8993 33.0852 81.9038 33.0853H88.941C88.9472 33.0853 88.9534 33.0838 88.959 33.081C88.9646 33.0783 88.9695 33.0742 88.9732 33.0692C88.977 33.0642 88.9795 33.0583 88.9806 33.0522C88.9817 33.046 88.9813 33.0397 88.9795 33.0337Z" fill="black"></path><path d="M98.6879 39.9656C98.6851 39.9629 98.6816 39.961 98.6778 39.9602C98.674 39.9594 98.6701 39.9597 98.6664 39.9612C98.6628 39.9626 98.6597 39.9651 98.6575 39.9683C98.6553 39.9715 98.6541 39.9753 98.654 39.9792V47.2769C98.654 47.2871 98.6499 47.2969 98.6427 47.3041C98.6355 47.3113 98.6257 47.3154 98.6154 47.3154H95.0617C95.0497 47.3154 95.0381 47.3106 95.0296 47.3021C95.0211 47.2936 95.0164 47.2821 95.0164 47.2701V27.5194C95.0164 27.5152 95.0172 27.5111 95.0188 27.5072C95.0204 27.5034 95.0227 27.4999 95.0257 27.4969C95.0286 27.494 95.0321 27.4916 95.036 27.49C95.0398 27.4884 95.044 27.4876 95.0481 27.4876H98.5993C98.6074 27.4876 98.6153 27.4908 98.621 27.4966C98.6268 27.5024 98.63 27.5102 98.63 27.5183V29.1277C98.6301 29.1343 98.6322 29.1407 98.636 29.1461C98.6398 29.1515 98.6452 29.1557 98.6514 29.158C98.6576 29.1603 98.6643 29.1607 98.6707 29.1591C98.6772 29.1575 98.6829 29.154 98.6873 29.1491C99.8989 27.7563 101.432 27.0835 103.287 27.1307C104.504 27.162 105.588 27.4652 106.538 28.0404C108.567 29.2689 109.796 31.4139 109.967 33.8141C110.046 34.9207 109.944 36.0399 109.596 37.0704C109.214 38.2031 108.593 39.1862 107.732 40.0198C106.315 41.3921 104.512 41.9939 102.555 41.8569C101.016 41.749 99.7601 41.0728 98.6879 39.9656ZM98.58 34.5305C98.5805 35.4756 98.8421 36.3478 99.4136 37.0892C100.169 38.0686 101.219 38.5396 102.454 38.5386C103.689 38.5376 104.738 38.0645 105.492 37.084C106.062 36.3415 106.322 35.4688 106.321 34.5237C106.32 33.5786 106.059 32.7065 105.487 31.9651C104.731 30.9861 103.682 30.5146 102.447 30.5157C101.212 30.5167 100.163 30.9898 99.4095 31.9708C98.839 32.7127 98.579 33.5854 98.58 34.5305Z" fill="black"></path><path d="M123.237 29.1168C123.24 29.1159 123.242 29.1141 123.244 29.1117C123.246 29.1092 123.247 29.1063 123.247 29.1032V27.5309C123.247 27.5197 123.251 27.5089 123.259 27.501C123.267 27.4931 123.278 27.4887 123.289 27.4887H126.669C126.679 27.4887 126.689 27.4925 126.696 27.4993C126.702 27.5062 126.706 27.5155 126.706 27.5251V41.5109C126.706 41.5174 126.704 41.5236 126.699 41.5282C126.695 41.5328 126.688 41.5354 126.682 41.5354H123.277C123.269 41.5354 123.261 41.5322 123.256 41.5266C123.25 41.5209 123.247 41.5132 123.247 41.5052V39.976C123.247 39.9719 123.246 39.9679 123.243 39.9645C123.241 39.9611 123.238 39.9584 123.234 39.9569C123.23 39.9554 123.226 39.9551 123.222 39.956C123.218 39.9569 123.214 39.959 123.211 39.962C121.675 41.6005 119.673 42.1299 117.48 41.7714C116.147 41.5533 114.994 40.9713 114.022 40.0255C112.286 38.3354 111.651 36.0623 111.837 33.6875C111.987 31.7699 112.746 30.172 114.114 28.8938C115.454 27.6408 117.139 27.0885 118.956 27.1323C120.599 27.1714 122.108 27.8794 123.192 29.098C123.208 29.1154 123.222 29.1216 123.237 29.1168ZM115.446 34.6118C115.473 35.647 115.821 36.5583 116.512 37.3257C117.152 38.0367 117.941 38.4403 118.88 38.5365C119.795 38.6298 120.766 38.4636 121.506 37.9514C122.68 37.1371 123.324 35.8429 123.287 34.4117C123.251 32.9805 122.542 31.7208 121.328 30.9679C120.563 30.4938 119.584 30.3776 118.675 30.5172C117.743 30.6614 116.975 31.1048 116.372 31.8474C115.721 32.6492 115.42 33.5766 115.446 34.6118Z" fill="black"></path><path d="M151.033 29.1152C151.036 29.1143 151.038 29.1125 151.04 29.1101C151.042 29.1077 151.043 29.1047 151.043 29.1017V27.5293C151.043 27.5181 151.047 27.5074 151.055 27.4995C151.063 27.4915 151.074 27.4871 151.085 27.4871H154.466C154.476 27.4871 154.486 27.4909 154.493 27.4978C154.5 27.5046 154.503 27.5139 154.503 27.5236L154.503 41.512C154.503 41.5185 154.5 41.5247 154.496 41.5293C154.491 41.5339 154.485 41.5365 154.478 41.5365H151.073C151.065 41.5365 151.057 41.5333 151.052 41.5276C151.046 41.5219 151.043 41.5143 151.043 41.5062V39.9766C151.043 39.9724 151.042 39.9684 151.039 39.965C151.037 39.9616 151.034 39.959 151.03 39.9575C151.026 39.956 151.022 39.9556 151.018 39.9565C151.014 39.9574 151.01 39.9595 151.007 39.9625C149.47 41.6016 147.468 42.1309 145.275 41.7725C143.941 41.5544 142.788 40.9722 141.816 40.0261C140.08 38.3354 139.445 36.0618 139.631 33.6865C139.781 31.7685 140.54 30.1704 141.908 28.8922C143.249 27.6387 144.934 27.0864 146.752 27.1302C148.395 27.1693 149.904 27.8779 150.988 29.0965C151.004 29.1138 151.018 29.1201 151.033 29.1152ZM143.236 34.6035C143.271 36.0836 144.007 37.3643 145.292 38.1135C145.869 38.45 146.577 38.5751 147.252 38.5595C147.926 38.5438 148.628 38.3854 149.189 38.0218C150.437 37.2137 151.113 35.9003 151.078 34.4201C151.043 32.9399 150.307 31.6598 149.023 30.9106C148.445 30.5735 147.737 30.4485 147.063 30.4641C146.388 30.4803 145.687 30.6381 145.125 31.0018C143.878 31.8099 143.202 33.1233 143.236 34.6035Z" fill="black"></path></g><defs><clipPath id="clip0_2019_546"><rect width="160" height="53.3507" fill="white"></rect></clipPath></defs></svg>