<svg width="915" height="180" viewBox="0 0 915 180" fill="none" xmlns="http://www.w3.org/2000/svg">
<g clip-path="url(#clip0_649_2)">
<path d="M619.75 0L619.76 63.98C619.76 64.0115 619.754 64.0427 619.742 64.0718C619.73 64.101 619.712 64.1274 619.69 64.1497C619.667 64.172 619.641 64.1897 619.612 64.2017C619.583 64.2138 619.552 64.22 619.52 64.22H610.99C610.958 64.22 610.927 64.2138 610.898 64.2017C610.869 64.1897 610.843 64.172 610.82 64.1497C610.798 64.1274 610.78 64.101 610.768 64.0718C610.756 64.0427 610.75 64.0115 610.75 63.98L610.77 0H619.75Z" fill="white"/>
<path d="M693.98 0L694.01 63.2C694.01 63.4864 693.896 63.7611 693.694 63.9637C693.491 64.1662 693.216 64.28 692.93 64.28H685.55C685.335 64.28 685.129 64.1947 684.977 64.0428C684.825 63.8909 684.74 63.6848 684.74 63.47V60.4C684.739 60.3461 684.722 60.2937 684.693 60.2486C684.663 60.2035 684.622 60.1675 684.573 60.1447C684.524 60.1218 684.47 60.113 684.416 60.1193C684.363 60.1255 684.312 60.1465 684.27 60.18C678.99 64.46 672.733 65.9367 665.5 64.61C650.43 61.86 645.59 48.3 647.87 34.15C649.9 21.61 658.91 14.49 672.05 15.3C676.663 15.58 680.71 17.27 684.19 20.37C684.232 20.4065 684.284 20.4301 684.339 20.438C684.394 20.4459 684.45 20.4377 684.501 20.4145C684.551 20.3913 684.594 20.3541 684.624 20.3071C684.654 20.2602 684.67 20.2057 684.67 20.15L684.71 0H693.98ZM685.17 36.814C685.2 33.3557 683.855 30.0271 681.431 27.5604C679.007 25.0937 675.702 23.691 672.244 23.6608L669.924 23.6405C666.466 23.6103 663.137 24.9552 660.67 27.3792C658.203 29.8033 656.801 33.1079 656.771 36.5662L656.71 43.466C656.68 46.9243 658.025 50.2529 660.449 52.7196C662.873 55.1863 666.178 56.589 669.636 56.6192L671.956 56.6395C675.414 56.6697 678.743 55.3248 681.21 52.9008C683.676 50.4767 685.079 47.1721 685.109 43.7138L685.17 36.814Z" fill="white"/>
<path d="M839.48 0L839.51 63.2C839.51 63.4838 839.396 63.7559 839.194 63.9566C838.991 64.1573 838.716 64.27 838.43 64.27H831.06C830.845 64.27 830.639 64.1847 830.487 64.0328C830.335 63.8808 830.25 63.6748 830.25 63.46V60.55C830.25 60.4897 830.233 60.4306 830.201 60.3795C830.169 60.3285 830.123 60.2875 830.069 60.2614C830.014 60.2353 829.954 60.225 829.894 60.2319C829.834 60.2387 829.777 60.2623 829.73 60.3C825.217 63.9467 819.81 65.4767 813.51 64.89C802.457 63.8633 795.81 57.87 793.57 46.91C792.1 39.72 793.06 29.97 797.44 23.9C804.58 14 820.47 11.93 829.92 20.45C829.947 20.4746 829.98 20.4904 830.016 20.4957C830.052 20.5009 830.089 20.4953 830.123 20.4796C830.156 20.4638 830.185 20.4385 830.206 20.4067C830.227 20.3749 830.239 20.3379 830.24 20.3L830.23 0H839.48ZM830.762 36.7396C830.768 35.0272 830.437 33.3303 829.787 31.746C829.137 30.1616 828.182 28.7207 826.975 27.5056C825.768 26.2905 824.334 25.325 822.754 24.6641C821.175 24.0033 819.48 23.6601 817.768 23.6541L815.468 23.6461C813.755 23.6401 812.058 23.9715 810.474 24.6213C808.89 25.2711 807.449 26.2266 806.234 27.4332C805.019 28.6398 804.053 30.074 803.392 31.6538C802.731 33.2336 802.388 34.9281 802.382 36.6405L802.358 43.5404C802.352 45.2528 802.683 46.9497 803.333 48.534C803.983 50.1184 804.938 51.5593 806.145 52.7744C807.352 53.9895 808.786 54.955 810.366 55.6159C811.945 56.2767 813.64 56.6199 815.352 56.6259L817.652 56.6339C819.365 56.6399 821.062 56.3085 822.646 55.6587C824.23 55.0089 825.671 54.0534 826.886 52.8468C828.102 51.6402 829.067 50.206 829.728 48.6262C830.389 47.0464 830.732 45.3519 830.738 43.6395L830.762 36.7396Z" fill="white"/>
<path d="M231.76 180H180.02C179.98 145.333 179.983 110.667 180.03 76C180.037 67.9 176.843 61.5867 170.45 57.06C159.51 49.32 144.87 54.95 140.1 66.86C139.107 69.3333 138.643 73.32 138.71 78.82C138.763 83.7667 138.783 87.8267 138.77 91C138.77 91.6267 138.677 92.12 138.49 92.48C138.428 92.5988 138.333 92.6978 138.218 92.7659C138.102 92.834 137.97 92.8684 137.836 92.8653C137.702 92.8622 137.571 92.8216 137.459 92.7482C137.346 92.6749 137.257 92.5716 137.2 92.45C128.13 73.42 111.9 56.54 91.78 49.43C91.7212 49.4088 91.6672 49.3762 91.6211 49.3339C91.5751 49.2916 91.538 49.2406 91.5119 49.1838C91.4858 49.127 91.4714 49.0656 91.4693 49.0031C91.4673 48.9406 91.4777 48.8784 91.5 48.82C100.2 25.27 120.92 7.69 145.7 2.99C184.6 -4.4 222.26 20.67 230.31 59.36C231.27 63.9867 231.753 71.6233 231.76 82.27C231.767 114.85 231.767 147.427 231.76 180Z" fill="white"/>
<path d="M370.77 30.55V38.7C370.77 38.7796 370.738 38.8559 370.682 38.9121C370.626 38.9684 370.55 39 370.47 39H337.67C337.613 38.9985 337.556 39.0135 337.507 39.0433C337.458 39.073 337.418 39.1163 337.393 39.1679C337.367 39.2196 337.357 39.2773 337.364 39.3344C337.371 39.3915 337.394 39.4455 337.43 39.49L337.94 40.13C337.979 40.1819 338 40.2451 338 40.31V63.95C338 64.0296 337.968 64.1059 337.912 64.1621C337.856 64.2184 337.78 64.25 337.7 64.25H328.8C328.72 64.25 328.644 64.2184 328.588 64.1621C328.532 64.1059 328.5 64.0296 328.5 63.95V2.55C328.5 2.47044 328.532 2.39413 328.588 2.33787C328.644 2.28161 328.72 2.25 328.8 2.25H374.2C374.239 2.25 374.278 2.25776 374.315 2.27284C374.351 2.28791 374.384 2.31001 374.412 2.33787C374.44 2.36573 374.462 2.3988 374.477 2.43519C374.492 2.47159 374.5 2.5106 374.5 2.55V10.7C374.5 10.7394 374.492 10.7784 374.477 10.8148C374.462 10.8512 374.44 10.8843 374.412 10.9121C374.384 10.94 374.351 10.9621 374.315 10.9772C374.278 10.9922 374.239 11 374.2 11H338.27C338.19 11 338.114 11.0316 338.058 11.0879C338.002 11.1441 337.97 11.2204 337.97 11.3V29.95C337.97 29.9894 337.978 30.0284 337.993 30.0648C338.008 30.1012 338.03 30.1343 338.058 30.1621C338.086 30.19 338.119 30.2121 338.155 30.2272C338.192 30.2422 338.231 30.25 338.27 30.25H370.47C370.55 30.25 370.626 30.2816 370.682 30.3379C370.738 30.3941 370.77 30.4704 370.77 30.55Z" fill="white"/>
<path d="M281.99 180H278.26L278.25 3.8C278.25 3.73635 278.276 3.6753 278.323 3.63029C278.37 3.58528 278.434 3.56 278.5 3.56H281.77C281.831 3.56 281.89 3.58423 281.933 3.62736C281.976 3.6705 282 3.729 282 3.79L281.99 180Z" fill="white"/>
<path d="M432.72 33.2C432.4 28.3467 430.297 25.4167 426.41 24.41C419.163 22.5233 412.577 23.6067 406.65 27.66C406.462 27.7888 406.235 27.8473 406.008 27.8254C405.781 27.8034 405.57 27.7024 405.41 27.54L400.33 22.46C400.256 22.3863 400.199 22.2971 400.163 22.1988C400.127 22.1005 400.114 21.9956 400.123 21.8915C400.133 21.7873 400.165 21.6866 400.218 21.5964C400.271 21.5063 400.344 21.429 400.43 21.37C409.403 15.2433 419.317 13.6733 430.17 16.66C439.21 19.15 442.13 26.39 441.81 35.69C441.737 37.7167 441.73 46.9467 441.79 63.38C441.791 63.4964 441.77 63.6119 441.726 63.7198C441.682 63.8278 441.618 63.9259 441.536 64.0087C441.454 64.0915 441.357 64.1572 441.249 64.2021C441.142 64.2469 441.026 64.27 440.91 64.27H433.38C433.218 64.27 433.063 64.2057 432.949 64.0913C432.834 63.9769 432.77 63.8218 432.77 63.66V61.43C432.769 61.3501 432.746 61.2717 432.704 61.2035C432.663 61.1352 432.604 61.0795 432.534 61.0425C432.464 61.0054 432.386 60.9884 432.307 60.9933C432.229 60.9981 432.154 61.0246 432.09 61.07C422.13 67.92 398.8 66.85 397.5 51.07C396.05 33.44 420.56 33.36 432.1 33.83C432.184 33.8329 432.268 33.8184 432.346 33.7875C432.424 33.7566 432.494 33.7099 432.552 33.6505C432.611 33.5911 432.656 33.5204 432.685 33.4427C432.714 33.3651 432.726 33.2824 432.72 33.2ZM432.47 41.81C426 41.53 411.41 41.22 407.83 46.18C406.27 48.34 406.083 50.4633 407.27 52.55C410.91 58.95 432.61 58 432.7 49.95C432.733 46.7767 432.783 44.2033 432.85 42.23C432.853 42.1775 432.845 42.1249 432.827 42.0753C432.81 42.0258 432.782 41.9802 432.747 41.9412C432.712 41.9021 432.669 41.8705 432.622 41.848C432.574 41.8255 432.523 41.8126 432.47 41.81Z" fill="white"/>
<path d="M511.48 57.81C503.77 65.37 491.78 66.82 482.07 62.99C472.37 59.17 468.45 48.87 469.05 38.75C469.81 26.02 477.12 16.68 489.87 15.37C498.01 14.5367 504.997 16.5133 510.83 21.3C510.917 21.3707 510.989 21.4591 511.04 21.5593C511.091 21.6595 511.12 21.7693 511.126 21.8816C511.131 21.9939 511.113 22.1061 511.073 22.2109C511.032 22.3158 510.97 22.4108 510.89 22.49L505.86 27.53C505.698 27.6905 505.481 27.7844 505.252 27.7937C505.023 27.8029 504.798 27.7268 504.62 27.58C499.733 23.4933 494.1 22.4433 487.72 24.43C479.28 27.05 476.95 37.76 478.82 45.74C480.467 52.8 485.033 56.45 492.52 56.69C497.64 56.85 501.917 55.1933 505.35 51.72C505.381 51.6877 505.419 51.662 505.46 51.6445C505.502 51.6269 505.547 51.6179 505.592 51.6179C505.638 51.6179 505.683 51.6269 505.726 51.6445C505.768 51.662 505.807 51.6877 505.84 51.72L511.48 57.36C511.538 57.4187 511.57 57.4984 511.57 57.5822C511.57 57.6661 511.538 57.7477 511.48 57.81Z" fill="white"/>
<path d="M756.07 33.82C756.154 33.8229 756.238 33.8084 756.316 33.7775C756.393 33.7466 756.464 33.6999 756.522 33.6405C756.581 33.5811 756.626 33.5104 756.655 33.4327C756.684 33.3551 756.696 33.2724 756.69 33.19C756.37 28.3433 754.267 25.4167 750.38 24.41C743.133 22.53 736.547 23.6167 730.62 27.67C730.432 27.7988 730.205 27.8573 729.978 27.8354C729.751 27.8134 729.54 27.7124 729.38 27.55L724.3 22.47C724.226 22.3963 724.169 22.3071 724.133 22.2088C724.097 22.1105 724.084 22.0056 724.093 21.9015C724.103 21.7973 724.135 21.6966 724.188 21.6064C724.241 21.5163 724.314 21.439 724.4 21.38C733.367 15.2533 743.277 13.68 754.13 16.66C763.17 19.14 766.1 26.38 765.78 35.68C765.713 37.7067 765.713 46.9367 765.78 63.37C765.781 63.4864 765.759 63.6019 765.716 63.7098C765.672 63.8178 765.608 63.9159 765.526 63.9987C765.444 64.0815 765.346 64.1472 765.239 64.1921C765.132 64.2369 765.016 64.26 764.9 64.26H757.37C757.208 64.26 757.053 64.1957 756.939 64.0813C756.824 63.9669 756.76 63.8118 756.76 63.65V61.42C756.759 61.3401 756.736 61.2618 756.694 61.1935C756.653 61.1252 756.594 61.0695 756.524 61.0325C756.454 60.9955 756.376 60.9784 756.297 60.9833C756.219 60.9881 756.144 61.0147 756.08 61.06C746.12 67.92 722.8 66.86 721.49 51.08C720.03 33.46 744.53 33.36 756.07 33.82ZM756.46 41.81C749.99 41.53 735.4 41.21 731.82 46.17C730.26 48.33 730.073 50.4533 731.26 52.54C734.9 58.94 756.59 58 756.69 49.95C756.723 46.7767 756.773 44.2033 756.84 42.23C756.843 42.1775 756.835 42.1249 756.817 42.0753C756.8 42.0258 756.772 41.9802 756.737 41.9412C756.702 41.9021 756.659 41.8705 756.612 41.848C756.564 41.8255 756.513 41.8126 756.46 41.81Z" fill="white"/>
<path d="M876.39 44.58C877.437 47.7867 878.043 49.5333 878.21 49.82C883.76 59.43 896.86 58.33 904.15 51.4C904.204 51.3506 904.274 51.324 904.347 51.3259C904.42 51.3278 904.489 51.3579 904.54 51.41L910.46 57.33C910.485 57.3535 910.504 57.3819 910.517 57.4136C910.53 57.4452 910.536 57.4794 910.535 57.514C910.534 57.5487 910.526 57.583 910.511 57.615C910.497 57.647 910.476 57.6759 910.45 57.7C904.49 63.41 896.27 65.63 888.14 64.83C877.59 63.79 870.15 58.19 867.83 47.71C864.87 34.42 869.78 19.48 884.08 16.03C890.16 14.5633 895.983 14.96 901.55 17.22C911.74 21.35 915.14 32.55 914.41 43.14C914.395 43.3735 914.291 43.5923 914.12 43.7521C913.949 43.9118 913.724 44.0005 913.49 44H876.81C876.74 43.9995 876.671 44.0158 876.608 44.0475C876.546 44.0791 876.492 44.1252 876.451 44.1819C876.41 44.2387 876.383 44.3044 876.372 44.3736C876.362 44.4428 876.368 44.5136 876.39 44.58ZM876.9 36.02L904.86 35.98C904.868 35.98 904.876 35.9768 904.881 35.9712C904.887 35.9656 904.89 35.958 904.89 35.95V35.83C904.888 34.2001 904.527 32.5866 903.828 31.0818C903.129 29.577 902.106 28.2103 900.817 27.0597C899.529 25.9091 897.999 24.9973 896.316 24.3762C894.633 23.7551 892.83 23.437 891.01 23.44H890.71C887.035 23.446 883.512 24.7589 880.916 27.0899C878.321 29.4209 876.865 32.5791 876.87 35.87V35.99C876.87 35.9939 876.871 35.9978 876.872 36.0015C876.874 36.0051 876.876 36.0084 876.879 36.0112C876.882 36.014 876.885 36.0162 876.889 36.0177C876.892 36.0192 876.896 36.02 876.9 36.02Z" fill="white"/>
<path d="M546.02 16.38C545.96 34.02 545.98 44.38 546.08 47.46C546.26 53.08 549.87 55.96 555.42 56.6C563.39 57.52 570.93 53.93 571.23 45C571.243 44.7533 571.25 35.21 571.25 16.37C571.25 16.2719 571.288 16.1778 571.355 16.1084C571.423 16.039 571.514 16 571.61 16H580.15C580.243 16 580.332 16.0379 580.397 16.1054C580.463 16.173 580.5 16.2645 580.5 16.36V63.18C580.5 63.4691 580.386 63.7463 580.184 63.9507C579.981 64.1552 579.706 64.27 579.42 64.27H572.15C571.911 64.27 571.682 64.1752 571.514 64.0064C571.345 63.8376 571.25 63.6087 571.25 63.37V59.96C571.249 59.8989 571.23 59.8392 571.197 59.7879C571.163 59.7365 571.117 59.6958 571.062 59.6705C571.007 59.6453 570.947 59.6365 570.888 59.6453C570.829 59.654 570.774 59.68 570.73 59.72C568.417 61.7467 566.243 63.09 564.21 63.75C557.58 65.89 548.24 65.36 542.93 60.99C539.043 57.7967 537.03 53.2767 536.89 47.43C536.703 40.0233 536.67 29.6633 536.79 16.35C536.79 16.2572 536.827 16.1682 536.893 16.1025C536.958 16.0369 537.047 16 537.14 16H545.64C545.741 16 545.837 16.04 545.909 16.1113C545.98 16.1826 546.02 16.2792 546.02 16.38Z" fill="white"/>
<path d="M132.37 180H93.05C93.0633 162.813 93.0767 145.627 93.09 128.44C93.0967 123.027 92.82 119.263 92.26 117.15C90.05 108.83 84.11 102.06 76.15 98.82C58.46 91.63 39.5 105.07 39.48 124C39.4667 142.667 39.44 161.333 39.4 180H0V120.54C0.253333 118.92 0.47 117.293 0.65 115.66C1.91 104.05 6.62 92.95 13.61 83.88C24.71 69.48 39.4667 60.8933 57.88 58.12C59.6067 57.86 63.3033 57.7833 68.97 57.89C98.71 58.43 124.67 80.96 130.97 109.69C131.897 113.923 132.37 121 132.39 130.92C132.417 147.28 132.41 163.64 132.37 180Z" fill="white"/>
<path d="M721.86 180H705.28L705.3 78.6C705.3 78.4409 705.363 78.2883 705.476 78.1757C705.588 78.0632 705.741 78 705.9 78H726.45C726.535 78 726.616 78.0337 726.676 78.0937C726.736 78.1537 726.77 78.2351 726.77 78.32V179.58C726.77 179.661 726.738 179.738 726.68 179.796C726.622 179.854 726.543 179.887 726.46 179.89L721.86 180Z" fill="white"/>
<path d="M378.49 139.5C378.61 139.5 378.713 139.423 378.8 139.27C385.62 126.397 394.013 110.543 403.98 91.71C404.059 91.5591 404.177 91.4326 404.321 91.3445C404.466 91.2563 404.631 91.2098 404.8 91.21H428.15C428.193 91.21 428.236 91.2188 428.276 91.2359C428.316 91.253 428.353 91.278 428.383 91.3096C428.414 91.3412 428.438 91.3786 428.455 91.4199C428.471 91.4611 428.48 91.5053 428.48 91.55V178.63C428.48 178.72 428.444 178.807 428.38 178.87C428.317 178.934 428.23 178.97 428.14 178.97H406.63C406.463 178.97 406.303 178.904 406.185 178.785C406.066 178.667 406 178.507 406 178.34V134.4C406 134.341 405.98 134.284 405.945 134.238C405.909 134.191 405.859 134.157 405.803 134.141C405.746 134.126 405.686 134.129 405.632 134.15C405.577 134.171 405.531 134.21 405.5 134.26L378.86 178.74C378.853 178.753 378.843 178.767 378.83 178.78C378.737 178.86 378.633 178.9 378.52 178.9C378.407 178.9 378.303 178.86 378.21 178.78C378.197 178.767 378.187 178.753 378.18 178.74L351.47 134.3C351.439 134.25 351.393 134.211 351.338 134.19C351.284 134.169 351.224 134.166 351.167 134.181C351.111 134.197 351.061 134.231 351.025 134.278C350.99 134.324 350.97 134.381 350.97 134.44L351.04 178.38C351.04 178.547 350.974 178.707 350.855 178.825C350.737 178.944 350.577 179.01 350.41 179.01L328.9 179.05C328.81 179.05 328.723 179.014 328.66 178.95C328.596 178.887 328.56 178.8 328.56 178.71L328.43 91.63C328.43 91.5853 328.439 91.5411 328.455 91.4999C328.472 91.4586 328.496 91.4211 328.527 91.3896C328.557 91.358 328.594 91.3329 328.634 91.3159C328.674 91.2988 328.717 91.29 328.76 91.29L352.11 91.25C352.279 91.2498 352.444 91.2963 352.589 91.3845C352.733 91.4726 352.851 91.5991 352.93 91.75C362.923 110.57 371.34 126.41 378.18 139.27C378.267 139.423 378.37 139.5 378.49 139.5Z" fill="white"/>
<path d="M454.3 123.13C460.254 123.13 465.08 118.304 465.08 112.35C465.08 106.396 460.254 101.57 454.3 101.57C448.346 101.57 443.52 106.396 443.52 112.35C443.52 118.304 448.346 123.13 454.3 123.13Z" fill="white"/>
<path d="M651.83 180H642.85C641.27 179.687 639.697 179.363 638.13 179.03C628.517 177.003 620.703 172.577 614.69 165.75C598.76 147.66 603.8 120.71 623.8 108.21C638.91 98.77 658.72 99.4 673.23 109.82C692.22 123.46 694.84 150.02 678.77 167C673.163 172.933 665.98 176.897 657.22 178.89C655.447 179.29 653.65 179.66 651.83 180ZM626.76 140.758C626.751 143.377 627.273 145.972 628.298 148.394C629.322 150.817 630.828 153.021 632.73 154.879C634.632 156.737 636.892 158.214 639.382 159.225C641.871 160.235 644.542 160.76 647.24 160.77C649.939 160.779 652.613 160.273 655.11 159.28C657.607 158.286 659.877 156.825 661.792 154.98C663.706 153.135 665.228 150.943 666.269 148.527C667.31 146.111 667.851 143.52 667.86 140.902C667.869 138.283 667.347 135.688 666.322 133.266C665.298 130.843 663.792 128.639 661.89 126.781C659.988 124.923 657.728 123.446 655.238 122.435C652.749 121.425 650.078 120.9 647.38 120.89C644.681 120.881 642.007 121.387 639.51 122.38C637.013 123.374 634.743 124.835 632.828 126.68C630.914 128.525 629.392 130.717 628.351 133.133C627.31 135.549 626.769 138.14 626.76 140.758Z" fill="white"/>
<path d="M763.382 112.762C763.612 106.785 759.002 101.755 753.086 101.528C747.17 101.301 742.188 105.962 741.958 111.938C741.728 117.915 746.338 122.945 752.254 123.172C758.17 123.399 763.153 118.738 763.382 112.762Z" fill="white"/>
<path d="M889.31 180H879.53C870.763 179.247 862.973 176.19 856.16 170.83C856.082 170.768 856.032 170.679 856.019 170.581C856.005 170.484 856.031 170.387 856.09 170.31L865.93 156.92C865.971 156.865 866.023 156.818 866.083 156.784C866.143 156.749 866.209 156.728 866.278 156.72C866.346 156.713 866.415 156.72 866.481 156.74C866.547 156.761 866.608 156.795 866.66 156.84C872.647 162.027 879.727 163.96 887.9 162.64C892.65 161.88 896.73 158 893.77 153.12C893.563 152.78 892.637 152.133 890.99 151.18C890.21 150.733 889.16 150.363 887.84 150.07C883.06 149.003 878.333 147.77 873.66 146.37C864.34 143.57 859.38 137.373 858.78 127.78C857.83 112.54 867.28 103.89 881.79 102.03C892.223 100.697 901.91 103.66 910.85 110.92C910.893 110.954 910.928 110.997 910.952 111.046C910.977 111.095 910.992 111.149 910.994 111.203C910.997 111.258 910.989 111.313 910.969 111.364C910.949 111.415 910.919 111.461 910.88 111.5L900.04 122.33C899.934 122.44 899.792 122.509 899.638 122.525C899.485 122.542 899.33 122.504 899.2 122.42C894.113 119.14 888.87 118.05 883.47 119.15C877.62 120.35 876.69 125.85 881.58 129.36C882.313 129.887 883.37 130.337 884.75 130.71C889.85 132.097 894.773 133.347 899.52 134.46C901.487 134.927 903.887 136.083 906.72 137.93C912.01 141.38 913.97 146.44 914.41 152.62C915.61 169.52 904.32 177.6 889.31 180Z" fill="white"/>
<path d="M524.27 180H515.08C504.42 179 495.63 175.017 488.71 168.05C481.537 160.83 478.107 151.65 478.42 140.51C478.96 121.22 491.23 106.77 510.16 102.9C522.4 100.39 535.01 102.61 545.4 109.94C545.532 110.036 545.62 110.18 545.647 110.341C545.673 110.502 545.634 110.667 545.54 110.8L535.14 124.94C535.077 125.023 534.984 125.078 534.88 125.095C534.776 125.112 534.669 125.089 534.58 125.03C525.3 118.43 512.36 118.5 504.43 127.16C500.59 131.353 499.09 136.627 499.93 142.98C502.28 160.75 520.68 166.78 534.67 156.97C534.801 156.879 534.961 156.841 535.119 156.863C535.276 156.885 535.42 156.966 535.52 157.09L546.39 170.86C546.476 170.974 546.519 171.115 546.51 171.257C546.501 171.399 546.44 171.531 546.34 171.63C541.42 176.58 531.09 179.21 524.27 180Z" fill="white"/>
<path d="M580.26 180H558.26C558.233 165 558.237 150 558.27 135C558.3 121.79 562.63 109.87 575.65 104.88C582.057 102.427 588.597 101.527 595.27 102.18C595.405 102.195 595.53 102.258 595.62 102.358C595.711 102.458 595.761 102.587 595.76 102.72V121.78C595.76 121.84 595.747 121.899 595.721 121.953C595.695 122.007 595.656 122.054 595.609 122.091C595.562 122.128 595.506 122.153 595.448 122.165C595.389 122.177 595.328 122.175 595.27 122.16C589.21 120.53 583.83 122.22 581.35 128.08C580.817 129.347 580.537 131.237 580.51 133.75C580.33 149.17 580.247 164.587 580.26 180Z" fill="white"/>
<path d="M842.24 180H820.75C820.743 164.333 820.67 148.667 820.53 133C820.51 130.933 820.203 129.073 819.61 127.42C818.403 124.047 816.127 122.047 812.78 121.42C803.84 119.73 799.47 125.72 799.48 134C799.5 149.333 799.507 164.667 799.5 180H778.01C777.99 164.667 778.037 149.333 778.15 134C778.163 132.12 778.237 130.387 778.37 128.8C779.31 117.55 784.98 108.19 795.99 104.43C803.517 101.857 811.137 101.34 818.85 102.88C836.13 106.33 842.1 118.45 842.16 135C842.227 150 842.253 165 842.24 180Z" fill="white"/>
<path d="M464.99 180H443.53L443.55 132.05C443.55 131.901 443.609 131.759 443.714 131.654C443.819 131.549 443.961 131.49 444.11 131.49L464.43 131.48C464.568 131.48 464.7 131.536 464.798 131.635C464.895 131.735 464.95 131.869 464.95 132.01L464.99 180Z" fill="white"/>
<path d="M763.22 180H742.03L742.05 132.06C742.05 131.909 742.11 131.764 742.217 131.657C742.324 131.55 742.469 131.49 742.62 131.49H762.66C762.803 131.49 762.941 131.547 763.042 131.648C763.143 131.749 763.2 131.887 763.2 132.03L763.22 180Z" fill="white"/>
</g>
<defs>
<clipPath id="clip0_649_2">
<rect width="915" height="180" fill="white"/>
</clipPath>
</defs>
</svg>
