<svg xmlns="http://www.w3.org/2000/svg" width="209" height="57" viewBox="0 0 209 57" fill="none"><g clip-path="url(#clip0_251_32628)"><path d="M56.7539 12.0495L56.6068 45.0755C56.5998 46.6205 56.2886 48.1491 55.6909 49.5738C55.0933 50.9986 54.2208 52.2917 53.1234 53.3792C52.0259 54.4668 50.725 55.3276 49.2949 55.9124C47.8648 56.4972 46.3336 56.7946 44.7885 56.7876L11.7601 56.6429C10.2151 56.636 8.68654 56.3248 7.26178 55.7271C5.83702 55.1294 4.54394 54.2569 3.45636 53.1595C2.36879 52.0621 1.50802 50.7612 0.923206 49.3311C0.338393 47.901 0.0409879 46.3697 0.0479718 44.8247L0.195097 11.7962C0.202049 10.2512 0.513255 8.72267 1.11094 7.29791C1.70863 5.87315 2.5811 4.58007 3.67853 3.4925C4.77596 2.40492 6.07686 1.54415 7.50695 0.959339C8.93705 0.374526 10.4683 0.0771207 12.0134 0.0841046L45.0418 0.23123C46.5868 0.238182 48.1153 0.549387 49.5401 1.14708C50.9649 1.74476 52.2579 2.61723 53.3455 3.71466C54.4331 4.81209 55.2939 6.11299 55.8787 7.54309C56.4635 8.97318 56.7609 10.5045 56.7539 12.0495ZM25.175 21.726C21.2211 20.6422 17.8284 21.4639 14.9969 24.1909C13.8456 25.2988 12.9934 26.7749 12.4403 28.6192C12.1926 29.4424 12.0817 30.8373 12.1074 32.8038C12.1315 34.6867 12.134 36.092 12.1147 37.0198C12.1026 37.5287 12.0109 38.1196 12.0664 38.6382C12.0712 38.6853 12.0934 38.7289 12.1286 38.7606C12.1638 38.7922 12.2096 38.8096 12.257 38.8094L18.9548 38.8408C18.994 38.8408 19.0317 38.8253 19.0597 38.7978C19.0876 38.7703 19.1037 38.7329 19.1043 38.6936C19.1236 36.7802 19.1252 34.3747 19.1091 31.4773C19.1011 30.2552 19.5457 29.3451 20.4429 28.747C21.9286 27.7557 23.8992 28.3635 24.6565 29.9481C24.8462 30.3453 24.933 31.1774 24.917 32.4444C24.8993 33.9591 24.8703 36.043 24.8301 38.696C24.8298 38.7165 24.8336 38.7368 24.8414 38.7558C24.8491 38.7749 24.8606 38.7922 24.8752 38.8067C24.8898 38.8213 24.9072 38.8329 24.9264 38.8408C24.9455 38.8487 24.9661 38.8528 24.9869 38.8528L31.8053 38.8842C31.8232 38.8842 31.8404 38.8771 31.8531 38.8644C31.8657 38.8517 31.8729 38.8345 31.8729 38.8166C31.9516 32.8062 31.9766 28.2365 31.9476 25.1075C31.938 24.162 32.0417 23.4835 32.2588 23.0718C33.32 21.0458 36.1926 20.9518 37.3744 22.9657C37.5882 23.3323 37.6944 23.9586 37.6927 24.8446C37.6847 29.5879 37.6823 34.2429 37.6855 38.8094C37.6855 38.8324 37.6949 38.8545 37.7116 38.8708C37.7284 38.8871 37.7511 38.8962 37.7747 38.8962L44.5522 38.9276C44.5822 38.9276 44.6111 38.9156 44.6323 38.8944C44.6536 38.8731 44.6655 38.8443 44.6655 38.8142C44.7105 31.8085 44.7403 27.4341 44.7548 25.6911C44.7692 23.9851 44.6583 22.7084 44.4219 21.8611C42.9145 16.4391 37.2586 13.1807 31.8367 14.9582C28.6562 16.0002 26.4734 18.236 25.2884 21.6657C25.2807 21.6882 25.2646 21.707 25.2436 21.7182C25.2226 21.7294 25.1981 21.7322 25.175 21.726Z" fill="white"></path><path d="M163.135 16.1016H158.133C158.081 16.1016 158.039 16.1437 158.039 16.1956V40.6281C158.039 40.68 158.081 40.7221 158.133 40.7221H163.135C163.187 40.7221 163.229 40.68 163.229 40.6281V16.1956C163.229 16.1437 163.187 16.1016 163.135 16.1016Z" fill="white"></path><path d="M79.2202 30.9735C79.2508 30.9735 79.2902 30.9285 79.3384 30.8385C82.133 25.5355 84.1517 21.7207 85.3946 19.3941C85.4142 19.3571 85.4435 19.3263 85.4792 19.305C85.515 19.2837 85.5558 19.2728 85.5972 19.2735L91.1615 19.2976C91.205 19.2976 91.2467 19.3151 91.2774 19.3463C91.3082 19.3775 91.3255 19.4199 91.3255 19.464L91.2314 40.4619C91.2314 40.4695 91.2299 40.477 91.227 40.4841C91.2241 40.4911 91.2198 40.4975 91.2145 40.5028C91.2091 40.5082 91.2027 40.5125 91.1957 40.5154C91.1887 40.5183 91.1811 40.5198 91.1735 40.5198L85.9831 40.4981C85.9433 40.4975 85.9052 40.4812 85.8773 40.4527C85.8493 40.4243 85.8336 40.386 85.8336 40.3461L85.8818 29.7411C85.8827 29.7236 85.8776 29.7064 85.8675 29.6922C85.8573 29.6781 85.8426 29.6678 85.8258 29.663C85.809 29.6582 85.7911 29.6593 85.775 29.666C85.7589 29.6728 85.7456 29.6848 85.7371 29.7001L79.2853 40.474C79.2835 40.4771 79.2791 40.4803 79.2728 40.4833C79.2664 40.4862 79.2583 40.4889 79.2491 40.4909C79.2427 40.4909 79.2371 40.4909 79.2323 40.4909C79.2258 40.4909 79.2194 40.4909 79.213 40.4909C79.2038 40.4889 79.1956 40.4863 79.1893 40.4833C79.1829 40.4803 79.1786 40.4771 79.1768 40.474L72.7009 29.7145C72.6925 29.6992 72.6791 29.6873 72.663 29.6805C72.6469 29.6738 72.629 29.6727 72.6122 29.6775C72.5954 29.6822 72.5807 29.6925 72.5706 29.7067C72.5604 29.7209 72.5553 29.7381 72.5562 29.7555L72.6285 40.3606C72.6285 40.4005 72.6128 40.4388 72.5849 40.4672C72.5569 40.4956 72.5189 40.5119 72.479 40.5126L67.2886 40.5463C67.281 40.5463 67.2735 40.5448 67.2664 40.5419C67.2594 40.539 67.253 40.5348 67.2477 40.5294C67.2423 40.524 67.238 40.5176 67.2351 40.5106C67.2322 40.5036 67.2307 40.496 67.2307 40.4884L67.0908 19.4905C67.0908 19.4687 67.0951 19.447 67.1033 19.4268C67.1115 19.4067 67.1236 19.3883 67.1388 19.3729C67.1541 19.3574 67.1722 19.3451 67.1921 19.3368C67.212 19.3284 67.2333 19.3241 67.2548 19.3241L72.8191 19.2879C72.8605 19.2873 72.9013 19.2982 72.9371 19.3195C72.9728 19.3408 73.0021 19.3716 73.0217 19.4085C74.2694 21.732 76.297 25.542 79.1044 30.8385C79.1511 30.9285 79.1897 30.9735 79.2202 30.9735Z" fill="white"></path><path d="M97.4912 27.0136C98.9258 27.0136 100.089 25.8506 100.089 24.416C100.089 22.9813 98.9258 21.8184 97.4912 21.8184C96.0565 21.8184 94.8936 22.9813 94.8936 24.416C94.8936 25.8506 96.0565 27.0136 97.4912 27.0136Z" fill="white"></path><path d="M154.204 31.2445C154.209 32.4896 153.951 33.7234 153.444 34.8755C152.938 36.0276 152.194 37.0754 151.254 37.9591C150.314 38.8427 149.197 39.545 147.967 40.0258C146.737 40.5066 145.417 40.7564 144.084 40.7611C141.391 40.7705 138.804 39.7806 136.894 38.0092C134.984 36.2378 133.905 33.83 133.897 31.3154C133.892 30.0704 134.151 28.8366 134.657 27.6845C135.163 26.5324 135.907 25.4846 136.847 24.6009C137.787 23.7172 138.904 23.0149 140.134 22.5342C141.364 22.0534 142.684 21.8035 144.017 21.7989C146.71 21.7895 149.297 22.7794 151.207 24.5508C153.118 26.3222 154.196 28.73 154.204 31.2445ZM139.094 31.2786C139.093 31.9102 139.22 32.5358 139.468 33.1197C139.716 33.7036 140.08 34.2344 140.539 34.6818C140.998 35.1292 141.544 35.4844 142.145 35.7271C142.745 35.9699 143.389 36.0954 144.04 36.0965C144.69 36.0977 145.335 35.9744 145.936 35.7338C146.538 35.4931 147.084 35.1398 147.545 34.694C148.006 34.2482 148.372 33.7187 148.622 33.1356C148.872 32.5526 149.001 31.9274 149.002 31.2959C149.003 30.6643 148.876 30.0387 148.628 29.4548C148.38 28.8708 148.016 28.34 147.557 27.8926C147.098 27.4452 146.552 27.09 145.952 26.8473C145.351 26.6046 144.707 26.479 144.056 26.4779C143.406 26.4768 142.762 26.6 142.16 26.8407C141.559 27.0813 141.012 27.4346 140.551 27.8804C140.09 28.3262 139.724 28.8557 139.474 29.4388C139.224 30.0219 139.095 30.647 139.094 31.2786Z" fill="white"></path><path d="M169.456 27.0184C170.892 27.0184 172.056 25.8543 172.056 24.4184C172.056 22.9824 170.892 21.8184 169.456 21.8184C168.021 21.8184 166.856 22.9824 166.856 24.4184C166.856 25.8543 168.021 27.0184 169.456 27.0184Z" fill="white"></path><path d="M204.777 26.8486C203.616 26.0639 202.336 25.8066 200.937 26.0768C199.774 26.3011 199.384 27.5504 200.278 28.3271C200.529 28.5441 200.846 28.7065 201.229 28.8143C202.091 29.0587 203.321 29.3746 204.921 29.7621C205.304 29.8554 205.8 30.0853 206.409 30.4519C208.129 31.4866 208.542 33.1388 208.486 35.0659C208.38 38.8091 204.957 40.6735 201.593 40.7579C198.887 40.8255 196.636 40.196 194.449 38.5414C194.423 38.5224 194.406 38.4938 194.401 38.4619C194.396 38.4299 194.404 38.397 194.422 38.3702L196.757 35.1889C196.769 35.1723 196.784 35.1584 196.802 35.148C196.82 35.1376 196.839 35.1309 196.86 35.1284C196.88 35.126 196.901 35.1277 196.92 35.1335C196.94 35.1394 196.958 35.1492 196.974 35.1624C198.656 36.5693 200.551 36.9793 202.659 36.3924C202.99 36.3008 203.269 36.0724 203.496 35.7074C204.231 34.5232 203.177 33.79 202.097 33.5319C199.632 32.9386 196.017 32.4321 195.293 29.5185C194.316 25.5992 196.234 22.5844 200.235 21.9741C202.967 21.5593 205.419 22.2596 207.591 24.0749C207.603 24.0849 207.613 24.0973 207.62 24.1114C207.627 24.1256 207.631 24.1411 207.632 24.1569C207.633 24.1728 207.63 24.1887 207.624 24.2037C207.619 24.2186 207.61 24.2323 207.598 24.2437L205.018 26.8245C204.987 26.8558 204.945 26.8754 204.901 26.8798C204.857 26.8842 204.813 26.8732 204.777 26.8486Z" fill="white"></path><path d="M119.502 24.0344L117 27.4448C116.991 27.4571 116.98 27.4675 116.967 27.4754C116.954 27.4833 116.939 27.4886 116.924 27.4908C116.909 27.493 116.894 27.4923 116.879 27.4885C116.864 27.4847 116.851 27.4781 116.839 27.4689C113.58 25.0305 108.214 26.7526 108.45 31.27C108.595 34.0365 110.409 36.1975 113.281 36.3061C114.595 36.3559 115.788 35.9772 116.861 35.1701C116.893 35.1457 116.934 35.1351 116.974 35.1406C117.014 35.146 117.05 35.167 117.075 35.199L119.714 38.5467C119.733 38.5712 119.742 38.6019 119.739 38.6327C119.736 38.6636 119.722 38.6923 119.699 38.7131C119.373 39.0154 119.07 39.2381 118.79 39.3812C114.796 41.4193 109.823 41.2818 106.369 38.3706C103.916 36.3036 102.983 33.2888 103.395 30.0737C104.391 22.2713 113.573 19.7822 119.461 23.8052C119.479 23.8173 119.494 23.8329 119.506 23.8511C119.518 23.8693 119.526 23.8897 119.53 23.9111C119.534 23.9325 119.533 23.9544 119.528 23.9756C119.523 23.9968 119.514 24.0168 119.502 24.0344Z" fill="white"></path><path d="M131.429 26.7631C129.881 26.4495 128.818 26.8491 128.241 27.9618C127.967 28.4876 127.848 29.4025 127.884 30.7065C127.897 31.1937 127.898 34.5237 127.889 40.6965C127.889 40.7066 127.887 40.7165 127.883 40.7257C127.879 40.735 127.873 40.7433 127.866 40.7503C127.859 40.7573 127.85 40.7627 127.841 40.7663C127.831 40.7699 127.821 40.7716 127.811 40.7713L122.655 40.7496C122.636 40.7496 122.618 40.7422 122.605 40.7291C122.592 40.716 122.585 40.6982 122.585 40.6797C122.583 37.2258 122.584 33.3338 122.587 29.0037C122.587 28.8542 122.642 28.4466 122.751 27.7809C123.484 23.3092 127.31 21.6498 131.429 21.9489C131.47 21.9514 131.509 21.9695 131.537 21.9995C131.566 22.0296 131.581 22.0693 131.581 22.1105L131.559 26.6569C131.559 26.673 131.556 26.6889 131.549 26.7034C131.542 26.7179 131.532 26.7307 131.519 26.7409C131.507 26.751 131.492 26.7583 131.477 26.7621C131.461 26.7659 131.445 26.7663 131.429 26.7631Z" fill="white"></path><path d="M183.308 21.8828C183.334 21.8828 183.413 21.886 183.545 21.8925C186.017 22.0179 188.537 22.8114 189.893 24.9556C190.819 26.4172 191.036 28.1175 191.036 30.1001C191.035 34.5091 191.037 38.0087 191.043 40.5991C191.043 40.6439 191.025 40.6868 190.993 40.7185C190.961 40.7501 190.918 40.7679 190.872 40.7679L186.036 40.7462C185.995 40.7462 185.956 40.7297 185.927 40.7003C185.898 40.6709 185.882 40.631 185.882 40.5894C185.884 34.4327 185.879 30.7931 185.87 29.6708C185.855 28.0066 185.211 26.5281 183.311 26.5281C181.413 26.5305 180.771 28.0114 180.759 29.6756C180.751 30.798 180.753 34.4375 180.764 40.5942C180.764 40.6148 180.76 40.6352 180.752 40.6542C180.744 40.6733 180.733 40.6906 180.719 40.7051C180.704 40.7197 180.687 40.7312 180.669 40.7391C180.65 40.747 180.63 40.751 180.61 40.751L175.774 40.78C175.751 40.78 175.729 40.7756 175.708 40.7671C175.687 40.7586 175.668 40.7462 175.653 40.7305C175.637 40.7148 175.624 40.6962 175.615 40.6757C175.607 40.6553 175.602 40.6333 175.602 40.6111C175.604 38.0208 175.601 34.5211 175.593 30.1122C175.59 28.1296 175.805 26.4292 176.729 24.9652C178.082 22.8186 180.6 22.0227 183.072 21.8925C183.204 21.886 183.283 21.8828 183.308 21.8828Z" fill="white"></path><path d="M100.002 29.0635H94.9999C94.9492 29.0635 94.9082 29.1045 94.9082 29.1551V40.6695C94.9082 40.7201 94.9492 40.7611 94.9999 40.7611H100.002C100.053 40.7611 100.094 40.7201 100.094 40.6695V29.1551C100.094 29.1045 100.053 29.0635 100.002 29.0635Z" fill="white"></path><path d="M171.919 29.0635H167.008C166.95 29.0635 166.902 29.111 166.902 29.1696V40.655C166.902 40.7136 166.95 40.7611 167.008 40.7611H171.919C171.978 40.7611 172.025 40.7136 172.025 40.655V29.1696C172.025 29.111 171.978 29.0635 171.919 29.0635Z" fill="white"></path></g><defs><clipPath id="clip0_251_32628"><rect width="208.628" height="56.9206" fill="white"></rect></clipPath></defs></svg>