<svg xmlns="http://www.w3.org/2000/svg" width="262" height="51" viewBox="0 0 262 51" fill="none"><g clip-path="url(#clip0_251_32642)"><path d="M214.327 -1.12793H212.148C212.118 -1.12793 212.094 -1.10358 212.094 -1.07354V51.4205C212.094 51.4506 212.118 51.4749 212.148 51.4749H214.327C214.357 51.4749 214.381 51.4506 214.381 51.4205V-1.07354C214.381 -1.10358 214.357 -1.12793 214.327 -1.12793Z" fill="#C41215"></path><path d="M68.0087 29.2184C67.9932 29.2184 67.9784 29.2245 67.9674 29.2355C67.9565 29.2464 67.9503 29.2613 67.9503 29.2768V38.2531C67.9503 38.2602 67.9489 38.2673 67.9462 38.2739C67.9434 38.2805 67.9394 38.2865 67.9344 38.2915C67.9293 38.2966 67.9233 38.3006 67.9167 38.3033C67.9101 38.3061 67.9031 38.3075 67.8959 38.3075H62.7232C62.7109 38.3075 62.6991 38.3026 62.6904 38.2939C62.6816 38.2852 62.6768 38.2734 62.6768 38.261V12.0485C62.6768 12.0433 62.6778 12.0381 62.6797 12.0333C62.6816 12.0284 62.6845 12.0241 62.688 12.0204C62.6916 12.0167 62.6958 12.0137 62.7005 12.0117C62.7052 12.0097 62.7102 12.0087 62.7152 12.0087C66.7766 12.0025 70.0235 12.0038 72.4557 12.0127C72.7918 12.0145 73.2681 12.0481 73.8845 12.1135C75.1555 12.2488 76.3062 12.6008 77.3366 13.1696C79.3425 14.2747 80.7634 16.4173 81.2171 18.6726C81.8937 22.0278 80.9252 25.3976 78.179 27.4884C76.7661 28.5643 74.8358 29.0658 73.0514 29.1706C71.7221 29.2489 70.2203 29.2237 68.0087 29.2184ZM67.9251 17.0262L67.9755 24.2805C67.9755 24.2902 67.9774 24.2998 67.9812 24.3087C67.9849 24.3177 67.9904 24.3258 67.9974 24.3326C68.0043 24.3394 68.0125 24.3447 68.0215 24.3483C68.0305 24.3519 68.0401 24.3536 68.0498 24.3535L72.4239 24.3229C72.9056 24.3197 73.3821 24.2249 73.826 24.0441C74.2698 23.8633 74.6725 23.5999 75.0109 23.269C75.3493 22.938 75.6169 22.5461 75.7983 22.1155C75.9797 21.685 76.0715 21.2242 76.0683 20.7595L76.0656 20.4358C76.0592 19.4974 75.6666 18.6002 74.9742 17.9413C74.2818 17.2825 73.3463 16.9161 72.3735 16.9227L67.9981 16.9532C67.9885 16.9532 67.979 16.9551 67.9701 16.9588C67.9613 16.9625 67.9532 16.9678 67.9465 16.9746C67.9397 16.9814 67.9343 16.9894 67.9307 16.9983C67.927 17.0071 67.9251 17.0166 67.9251 17.0262Z" fill="white"></path><path d="M234.955 12.2393H230.264C230.231 12.2393 230.204 12.266 230.204 12.299V38.018C230.204 38.0509 230.231 38.0777 230.264 38.0777H234.955C234.988 38.0777 235.015 38.0509 235.015 38.018V12.299C235.015 12.266 234.988 12.2393 234.955 12.2393Z" fill="#C41215"></path><path d="M250.069 12.2376C250.676 12.2385 251.271 12.2416 251.852 12.2469C251.871 12.2469 251.889 12.2525 251.904 12.2629C251.92 12.2733 251.931 12.2881 251.938 12.3053L261.793 38.0283C261.795 38.0351 261.796 38.0425 261.795 38.0498C261.794 38.057 261.792 38.064 261.788 38.07C261.783 38.076 261.778 38.0809 261.771 38.0842C261.765 38.0876 261.758 38.0894 261.75 38.0893H256.79C256.766 38.0893 256.743 38.0821 256.724 38.0685C256.705 38.055 256.69 38.0358 256.682 38.0137L254.619 32.2997C254.614 32.2851 254.605 32.2724 254.592 32.2631C254.58 32.2539 254.565 32.2486 254.549 32.2479C254.473 32.2453 252.969 32.2413 250.037 32.236C247.105 32.2316 245.601 32.2307 245.524 32.2334C245.508 32.234 245.493 32.2393 245.48 32.2485C245.468 32.2578 245.458 32.2705 245.453 32.2851L243.373 37.9925C243.365 38.0148 243.351 38.0341 243.331 38.0477C243.312 38.0612 243.288 38.0684 243.264 38.0681L238.304 38.0522C238.297 38.052 238.29 38.0501 238.283 38.0466C238.277 38.0432 238.271 38.0383 238.267 38.0323C238.263 38.0263 238.261 38.0195 238.26 38.0123C238.259 38.0051 238.26 37.9979 238.263 37.9911L248.2 12.2987C248.206 12.2815 248.218 12.2667 248.233 12.2563C248.249 12.2459 248.267 12.2403 248.286 12.2403C248.867 12.2376 249.461 12.2368 250.069 12.2376ZM246.894 27.8314C246.892 27.8377 246.891 27.8444 246.892 27.851C246.892 27.8576 246.895 27.8639 246.899 27.8694C246.902 27.8749 246.907 27.8794 246.913 27.8824C246.919 27.8855 246.926 27.8872 246.933 27.8872L253.144 27.8978C253.151 27.8979 253.157 27.8964 253.163 27.8935C253.169 27.8906 253.174 27.8863 253.178 27.8809C253.182 27.8756 253.185 27.8694 253.186 27.8629C253.187 27.8563 253.186 27.8496 253.184 27.8434L250.093 19.2478C250.09 19.2395 250.085 19.2323 250.078 19.2272C250.071 19.2221 250.062 19.2193 250.054 19.2193C250.045 19.2193 250.036 19.2221 250.029 19.2272C250.022 19.2323 250.017 19.2395 250.014 19.2478L246.894 27.8314Z" fill="#C41215"></path><path d="M89.0186 20.7945C90.7327 18.4131 93.7509 17.8625 96.4095 18.7912C96.441 18.8023 96.4679 18.8236 96.486 18.8517C96.504 18.8798 96.5121 18.9132 96.509 18.9464L96.0964 23.6296C96.0954 23.6403 96.0919 23.6507 96.0864 23.6599C96.0808 23.6691 96.0732 23.6768 96.0643 23.6826C96.0553 23.6884 96.0451 23.692 96.0346 23.6932C96.0241 23.6943 96.0135 23.693 96.0036 23.6893C92.7704 22.5391 89.8106 23.627 89.2428 27.2767C89.1712 27.7383 89.1371 28.3283 89.1406 29.0465C89.1477 30.4112 89.1486 33.4807 89.1433 38.2549C89.1433 38.2687 89.1378 38.2818 89.1281 38.2915C89.1184 38.3012 89.1053 38.3067 89.0916 38.3067H84.155C84.1478 38.3067 84.1408 38.3053 84.1342 38.3025C84.1276 38.2998 84.1216 38.2958 84.1165 38.2907C84.1115 38.2857 84.1075 38.2797 84.1047 38.2731C84.102 38.2665 84.1006 38.2594 84.1006 38.2523V18.9252C84.1006 18.9097 84.1066 18.8949 84.1173 18.8839C84.128 18.873 84.1425 18.8668 84.1576 18.8668H88.8806C88.8979 18.8668 88.9144 18.8738 88.9266 18.8863C88.9388 18.8987 88.9456 18.9156 88.9456 18.9332V20.772C88.9455 20.7806 88.9482 20.789 88.9532 20.7959C88.9583 20.8029 88.9654 20.808 88.9737 20.8105C88.9819 20.8131 88.9907 20.8129 88.9988 20.81C89.0069 20.8071 89.0138 20.8017 89.0186 20.7945Z" fill="white"></path><path d="M171.629 20.7739C171.629 20.7825 171.631 20.7909 171.636 20.7979C171.642 20.8048 171.649 20.8099 171.657 20.8125C171.665 20.815 171.674 20.8148 171.682 20.812C171.69 20.8091 171.697 20.8036 171.702 20.7965C173.416 18.4151 176.433 17.8645 179.091 18.7932C179.123 18.8043 179.15 18.8256 179.168 18.8537C179.186 18.8818 179.194 18.9151 179.191 18.9484L178.778 23.6302C178.777 23.641 178.774 23.6513 178.768 23.6605C178.763 23.6697 178.755 23.6775 178.746 23.6832C178.737 23.689 178.727 23.6926 178.717 23.6938C178.706 23.6949 178.695 23.6936 178.685 23.6899C175.454 22.5397 172.494 23.6276 171.926 27.2773C171.854 27.739 171.82 28.3289 171.824 29.0471C171.831 30.4109 171.832 33.48 171.827 38.2542C171.827 38.268 171.821 38.2811 171.811 38.2908C171.802 38.3005 171.789 38.306 171.775 38.306H166.84C166.832 38.306 166.825 38.3046 166.819 38.3018C166.812 38.2991 166.806 38.2951 166.801 38.29C166.796 38.285 166.792 38.279 166.789 38.2724C166.787 38.2658 166.785 38.2587 166.785 38.2516V18.9272C166.785 18.9117 166.791 18.8968 166.802 18.8859C166.813 18.8749 166.827 18.8688 166.842 18.8688H171.564C171.581 18.8688 171.598 18.8758 171.61 18.8882C171.622 18.9007 171.629 18.9175 171.629 18.9351V20.7739Z" fill="white"></path><path d="M113.789 32.3036C113.792 32.3016 113.796 32.3002 113.799 32.2995C113.803 32.2988 113.806 32.2988 113.81 32.2996C113.813 32.3003 113.817 32.3018 113.82 32.3038C113.822 32.3059 113.825 32.3085 113.826 32.3116L115.887 35.879C115.893 35.8909 115.896 35.9048 115.893 35.9182C115.89 35.9316 115.883 35.9436 115.872 35.952C112.85 38.2909 108.987 39.1227 105.234 38.5947C102.542 38.2166 100.105 36.9045 98.5696 34.6173C96.9524 32.2068 96.504 29.2814 96.9816 26.4397C97.3389 24.3188 98.295 22.5242 99.8498 21.056C101.535 19.4649 103.595 18.591 106.032 18.4345C108.364 18.2846 110.656 18.7171 112.615 20.0769C114.786 21.5849 116.055 23.6855 116.421 26.3787C116.603 27.7159 116.587 29.063 116.374 30.4197C116.371 30.4362 116.363 30.4513 116.35 30.4623C116.337 30.4732 116.321 30.4793 116.305 30.4794H102.081C102.073 30.4795 102.064 30.4815 102.056 30.4854C102.049 30.4894 102.042 30.495 102.037 30.502C102.032 30.5089 102.028 30.517 102.027 30.5255C102.025 30.534 102.026 30.5428 102.028 30.5511C103.052 33.7391 105.722 34.6412 108.882 34.2459C110.731 34.0137 112.29 33.3305 113.789 32.3036ZM102.125 26.4994H111.487C111.492 26.4993 111.497 26.4982 111.501 26.4961C111.505 26.494 111.509 26.491 111.512 26.4873C111.515 26.4837 111.517 26.4794 111.518 26.4748C111.519 26.4702 111.519 26.4655 111.518 26.4609C110.959 23.6444 108.435 22.258 105.711 22.8377C103.879 23.2278 102.547 24.6314 102.053 26.4065C102.05 26.4173 102.05 26.4287 102.052 26.4398C102.054 26.4509 102.059 26.4613 102.066 26.4703C102.073 26.4793 102.082 26.4866 102.092 26.4917C102.102 26.4967 102.114 26.4993 102.125 26.4994Z" fill="white"></path><path d="M124.6 20.9105C124.6 20.9161 124.602 20.9215 124.605 20.9261C124.608 20.9308 124.612 20.9344 124.617 20.9365C124.622 20.9387 124.628 20.9392 124.633 20.9382C124.638 20.9371 124.643 20.9344 124.646 20.9304C126.093 19.3924 127.866 18.5583 129.966 18.4283C133.154 18.232 135.934 19.4777 137.942 21.9759C139.915 24.4276 140.499 27.6169 139.963 30.7173C139.525 33.2473 138.066 35.5836 135.991 37.0894C134.49 38.179 132.74 38.7411 130.74 38.7756C128.377 38.8167 126.345 38.0366 124.7 36.3982C124.694 36.3931 124.687 36.3896 124.68 36.3882C124.673 36.3868 124.665 36.3876 124.658 36.3904C124.652 36.3932 124.646 36.3979 124.641 36.404C124.637 36.4101 124.635 36.4173 124.635 36.4247V46.0604C124.635 46.0717 124.63 46.0825 124.622 46.0904C124.614 46.0984 124.603 46.1029 124.592 46.1029H119.598C119.587 46.1029 119.576 46.0981 119.568 46.0896C119.559 46.0812 119.555 46.0697 119.555 46.0577V18.9484C119.555 18.9379 119.557 18.9276 119.561 18.9179C119.565 18.9083 119.571 18.8995 119.578 18.8921C119.585 18.8847 119.594 18.8788 119.604 18.8748C119.613 18.8708 119.624 18.8688 119.634 18.8688H124.512C124.536 18.8688 124.558 18.878 124.574 18.8944C124.591 18.9108 124.6 18.9331 124.6 18.9563V20.9105ZM135.09 28.6146C135.089 25.5632 132.948 23.1035 129.806 23.1049C126.666 23.1075 124.528 25.5712 124.53 28.6225C124.532 31.6739 126.674 34.1349 129.814 34.1322C132.955 34.1296 135.093 31.6659 135.09 28.6146Z" fill="white"></path><path d="M157.812 36.4462C157.812 36.4409 157.81 36.4357 157.807 36.4314C157.804 36.427 157.8 36.4235 157.795 36.4214C157.79 36.4194 157.785 36.4187 157.78 36.4196C157.774 36.4204 157.769 36.4228 157.765 36.4263C155.936 38.1819 153.706 38.9585 151.076 38.7559C148.75 38.5773 146.81 37.7114 145.255 36.1583C143.498 34.4036 142.51 32.2588 142.288 29.7239C142.04 26.8795 142.608 24.0563 144.452 21.8381C146.13 19.8207 148.266 18.6921 150.861 18.4524C153.525 18.2044 155.875 18.9738 157.762 20.8431C157.766 20.8473 157.771 20.85 157.777 20.8512C157.783 20.8523 157.789 20.8517 157.794 20.8494C157.8 20.8472 157.805 20.8434 157.808 20.8385C157.811 20.8336 157.813 20.8278 157.813 20.8219V18.9221C157.813 18.9077 157.819 18.8938 157.829 18.8836C157.839 18.8734 157.853 18.8677 157.868 18.8677H162.585C162.599 18.8677 162.613 18.8734 162.623 18.8836C162.633 18.8938 162.638 18.9077 162.638 18.9221L162.64 38.2319C162.64 38.2523 162.632 38.2719 162.617 38.2863C162.603 38.3007 162.583 38.3089 162.563 38.3089L157.862 38.3102C157.856 38.3102 157.849 38.3089 157.843 38.3063C157.837 38.3038 157.831 38.3001 157.827 38.2954C157.822 38.2907 157.818 38.2852 157.816 38.2791C157.813 38.2729 157.812 38.2664 157.812 38.2598V36.4462ZM147.274 28.5856C147.27 31.6542 149.418 34.1325 152.576 34.1364C155.733 34.1404 157.888 31.6688 157.892 28.6002C157.896 25.5329 155.748 23.0547 152.59 23.0507C149.433 23.0454 147.278 25.5183 147.274 28.5856Z" fill="white"></path><path d="M195.064 36.4424C195.064 36.4371 195.063 36.432 195.06 36.4276C195.057 36.4232 195.052 36.4198 195.048 36.4177C195.043 36.4156 195.037 36.4149 195.032 36.4158C195.027 36.4166 195.022 36.419 195.018 36.4225C193.188 38.1773 190.959 38.9534 188.33 38.7508C186.005 38.5722 184.065 37.7067 182.511 36.1545C180.756 34.3998 179.767 32.2554 179.546 29.7215C179.298 26.8784 179.866 24.0565 181.71 21.8383C183.387 19.8218 185.523 18.6937 188.117 18.454C190.781 18.2072 193.129 18.9767 195.014 20.8446C195.018 20.8488 195.024 20.8516 195.029 20.8527C195.035 20.8538 195.041 20.8532 195.047 20.851C195.052 20.8487 195.057 20.8449 195.06 20.84C195.064 20.8351 195.066 20.8294 195.066 20.8234V18.9249C195.066 18.9105 195.071 18.8967 195.082 18.8865C195.092 18.8763 195.106 18.8706 195.12 18.8706H199.836C199.851 18.8706 199.864 18.8763 199.874 18.8865C199.884 18.8967 199.89 18.9105 199.89 18.9249V38.2281C199.89 38.2382 199.888 38.2482 199.884 38.2576C199.88 38.2669 199.874 38.2754 199.867 38.2825C199.86 38.2897 199.851 38.2954 199.842 38.2992C199.833 38.3031 199.823 38.3051 199.813 38.3051H195.115C195.101 38.3051 195.089 38.2998 195.079 38.2903C195.07 38.2809 195.064 38.268 195.064 38.2547V36.4424ZM184.535 28.5872C184.531 31.6544 186.677 34.1327 189.835 34.1367C192.992 34.142 195.147 31.669 195.151 28.6017C195.155 25.5345 193.008 23.0562 189.851 23.0522C186.693 23.0483 184.539 25.5199 184.535 28.5872Z" fill="white"></path><path d="M48.3586 19.3472C46.0644 22.1624 43.5972 24.7353 40.9571 27.0658C37.0036 30.5563 32.3642 33.5466 27.2525 34.9476C22.1191 36.3557 17.1286 35.9316 12.2809 33.6753C5.45646 30.5006 1.34641 24.2427 -0.0505841 16.8239C-0.0618912 16.7648 -0.057309 16.7043 -0.0373173 16.6487C1.48129 12.4494 3.83393 8.93188 7.02062 6.09632C12.2676 1.42641 19.2579 -0.811698 26.2203 -0.151011C37.0036 0.873186 45.9573 8.67937 48.3905 19.2119C48.3958 19.2354 48.3958 19.2598 48.3902 19.2832C48.3847 19.3067 48.3739 19.3286 48.3586 19.3472Z" fill="#C41215"></path><path d="M3.88378 40.4974C3.88644 40.4965 3.88953 40.4947 3.89307 40.4921C3.89577 40.4904 3.89921 40.4898 3.90299 40.4903C3.90676 40.4907 3.91069 40.4923 3.9143 40.4947C5.87778 41.7958 8.08626 42.5608 10.5397 42.7899C16.2219 43.3192 22.0049 41.5136 27.0503 39.0314C29.4011 37.8745 31.645 36.5576 33.7818 35.0806C39.4972 31.1306 44.4559 26.3948 48.6579 20.8731C48.663 20.8663 48.67 20.861 48.678 20.8581C48.6861 20.8552 48.6948 20.8547 48.7031 20.8567C48.7115 20.8586 48.719 20.863 48.7249 20.8692C48.7308 20.8755 48.7347 20.8833 48.7362 20.8917C49.0581 22.7217 49.1536 24.6179 49.0227 26.5805C48.6849 31.6476 46.996 36.2038 43.9561 40.2493C36.8518 49.7019 23.9339 52.9071 13.2302 47.9401C9.53234 46.2242 6.41376 43.7539 3.8745 40.5292C3.87248 40.5268 3.87111 40.524 3.87049 40.5209C3.86987 40.5178 3.87002 40.5146 3.87093 40.5115C3.87183 40.5084 3.87347 40.5055 3.8757 40.503C3.87793 40.5006 3.8807 40.4987 3.88378 40.4974Z" fill="#C41215"></path></g><defs><clipPath id="clip0_251_32642"><rect width="261.934" height="50.3458" fill="white"></rect></clipPath></defs></svg>