<svg xmlns="http://www.w3.org/2000/svg" width="204" height="46" viewBox="0 0 204 46" fill="none"><g clip-path="url(#clip0_223_17848)"><path d="M13.2481 0.000331879C10.0533 0.000331879 7.08139 0.948906 5.72079 1.83766C5.72079 1.83766 4.59251 2.57454 5.54556 3.52809L16.7115 14.6941C17.0396 15.0216 17.2022 15.4498 17.2022 15.879C17.2022 16.3085 17.0396 16.7399 16.7115 17.0657L5.57926 28.1984C5.57926 28.1984 4.62621 29.1514 5.75627 29.8861C7.10833 30.7641 10.0677 31.7041 13.2481 31.7041C22.0029 31.7041 29.1002 24.6073 29.1002 15.8524C29.1002 7.09756 22.0029 0.000331879 13.2481 0.000331879Z" fill="#43B0C6"></path><path d="M17.1855 15.6983C17.1919 15.7584 17.2027 15.8181 17.2027 15.8785C17.2027 16.3081 17.04 16.7395 16.712 17.0653L5.57971 28.198C5.57971 28.198 4.62667 29.151 5.75678 29.8857C5.95624 30.0152 6.19452 30.1459 6.45954 30.2749C6.37199 30.2154 5.71949 29.7474 6.03758 29.2254C6.37815 28.6665 16.4396 18.7742 16.4396 18.7742C16.4396 18.7742 16.8704 18.4592 17.1918 17.6863C17.5132 16.9136 17.1918 15.692 17.1918 15.692L17.1855 15.6983Z" fill="#3DA1B5"></path><path d="M11.7839 14.9433L2.8336 5.78454C2.8336 5.78454 2.78981 5.74152 2.72851 5.68543C2.62032 5.59205 2.17721 5.22731 1.85052 5.22731C1.51177 5.22731 1.13826 5.62914 1.01089 5.77847C0.948571 5.8543 0.884573 5.93629 0.820982 6.01682C0.770805 6.08416 0.642164 6.25565 0.324266 6.6771C0.306648 6.70189 0.289543 6.726 0.272546 6.75024C-0.173612 7.36115 0.0327531 7.92598 0.161499 8.1655C0.26278 8.32788 0.394574 8.50517 0.590957 8.70602L6.68574 14.9433C6.68574 14.9433 7.07339 15.343 7.10012 15.8834C7.07339 16.4239 6.68574 16.8236 6.68574 16.8236L0.590957 23.0608C0.394574 23.2616 0.26278 23.439 0.161499 23.6014C0.0327531 23.8409 -0.173612 24.4058 0.272546 25.0167C0.289543 25.0409 0.306648 25.065 0.324266 25.0898C0.642164 25.5113 0.770805 25.6827 0.820982 25.7501C0.884573 25.8306 0.948571 25.9126 1.01089 25.9885C1.13826 26.1377 1.51177 26.5396 1.85052 26.5396C2.17721 26.5396 2.62032 26.1749 2.72851 26.0815C2.78981 26.0253 2.8336 25.9824 2.8336 25.9824L11.7839 16.8236C12.1029 16.4972 12.203 16.172 12.1992 15.8834C12.203 15.5949 12.1029 15.2698 11.7839 14.9433Z" fill="#3DA1B5"></path><path d="M146.606 5.29387H160.68V7.53483H148.847V14.8551H157.482V17.096H148.847V24.4162H160.68V26.6572H146.606V5.29387Z" fill="#43B0C6"></path><path d="M175.26 23.7462C176.296 23.3 177.192 22.6945 177.95 21.9304C178.706 21.1664 179.309 20.2735 179.757 19.2509C180.205 18.2285 180.429 17.1318 180.429 15.9606C180.429 14.8092 180.205 13.7179 179.757 12.6857C179.309 11.6537 178.706 10.7608 177.95 10.0065C177.192 9.25184 176.296 8.65137 175.26 8.20458C174.224 7.7584 173.129 7.53483 171.973 7.53483H167.402V24.4162H171.973C173.129 24.4162 174.224 24.193 175.26 23.7462ZM176.146 6.13035C177.443 6.68827 178.575 7.45029 179.542 8.41627C180.51 9.38252 181.273 10.5129 181.832 11.8075C182.391 13.1026 182.67 14.4867 182.67 15.9606C182.67 17.4349 182.391 18.8243 181.832 20.1285C181.273 21.4337 180.51 22.5688 179.542 23.5348C178.575 24.5014 177.443 25.2631 176.146 25.8207C174.849 26.3784 173.462 26.6572 171.986 26.6572H165.161V5.29387H171.986C173.462 5.29387 174.849 5.57297 176.146 6.13035Z" fill="#43B0C6"></path><path d="M201.759 5.29387H204V18.2613C204 19.4169 203.781 20.5023 203.341 21.518C202.902 22.5339 202.299 23.4257 201.53 24.1921C200.762 24.9591 199.869 25.562 198.851 25.9999C197.834 26.4381 196.747 26.6572 195.589 26.6572C194.492 26.6572 193.459 26.4629 192.491 26.0747C191.523 25.6862 190.665 25.1534 189.917 24.476C189.169 23.7992 188.555 22.997 188.076 22.0709C187.597 21.1445 187.298 20.1539 187.178 19.0978H187.148V18.2613V5.29387H189.389V18.3305C189.389 19.1661 189.553 19.9565 189.882 20.7024C190.211 21.4485 190.654 22.0945 191.212 22.6412C191.769 23.1886 192.427 23.6209 193.184 23.9393C193.941 24.2575 194.738 24.4162 195.574 24.4162C196.411 24.4162 197.203 24.2575 197.95 23.9393C198.696 23.6209 199.354 23.1886 199.922 22.6412C200.489 22.0945 200.938 21.4532 201.266 20.7173C201.595 19.9816 201.759 19.196 201.759 18.3604V18.2412V5.29387Z" fill="#43B0C6"></path><path d="M137.653 29.2363H137.025V2.71461H137.653V29.2363Z" fill="#3DA1B5"></path><path d="M62.9619 5.29387V26.6572H60.721V11.2397L53.4604 26.6572H51.8172L44.6462 11.2696V26.6572H42.4053V5.29387H44.3175L52.6538 23.1315L61.0198 5.29387H62.9619Z" fill="white"></path><path d="M106.788 5.29387H109.149L100.544 26.6572H98.8701L90.1455 5.29387H92.5062L99.7072 22.8627L106.788 5.29387Z" fill="white"></path><path d="M113.998 5.29387H128.071V7.53483H116.239V14.8551H124.874V17.096H116.239V24.4162H128.071V26.6572H113.998V5.29387Z" fill="white"></path><path d="M78.1261 24.4176C73.4633 24.4176 69.684 20.6379 69.684 15.9755C69.684 11.3131 73.4633 7.53345 78.1261 7.53345C82.7888 7.53345 86.5682 11.3131 86.5682 15.9755C86.5682 20.6379 82.7888 24.4176 78.1261 24.4176ZM78.1261 5.29381C72.227 5.29381 67.4443 10.0762 67.4443 15.9755C67.4443 21.8749 72.227 26.6572 78.1261 26.6572C84.0251 26.6572 88.808 21.8749 88.808 15.9755C88.808 10.0762 84.0251 5.29381 78.1261 5.29381Z" fill="white"></path><path d="M73.9824 43.7432V38.0333H74.7069V43.7432H73.9824Z" fill="white"></path><path d="M78.8141 39.3783V43.7432H78.0889V38.0255H78.6525L82.1963 42.4788V38.0333H82.9208V43.7432H82.3082L78.8141 39.3783Z" fill="white"></path><path d="M86.6813 40.8849C86.6813 41.1743 86.7283 41.4551 86.8222 41.7258C86.9162 41.9973 87.0488 42.2378 87.2214 42.4472C87.3927 42.6558 87.5999 42.8226 87.841 42.946C88.0827 43.07 88.3514 43.1314 88.647 43.1314C88.9523 43.1314 89.2265 43.0654 89.4675 42.9343C89.7092 42.8024 89.9151 42.631 90.0843 42.4185C90.2535 42.2067 90.382 41.9662 90.4704 41.6979C90.5588 41.4295 90.603 41.158 90.603 40.8849C90.603 40.5949 90.5567 40.314 90.4628 40.0433C90.3681 39.7719 90.2342 39.5329 90.0594 39.3265C89.8847 39.1194 89.6782 38.9542 89.4399 38.8309C89.2009 38.7075 88.9364 38.6455 88.647 38.6455C88.3403 38.6455 88.0668 38.7099 87.8251 38.8394C87.5834 38.9682 87.3775 39.1373 87.209 39.3467C87.0398 39.5561 86.9093 39.7951 86.8188 40.0634C86.7269 40.3318 86.6813 40.6057 86.6813 40.8849ZM88.638 43.7837C88.236 43.7837 87.8693 43.7015 87.5391 43.5378C87.209 43.3741 86.9258 43.1569 86.6896 42.8855C86.4534 42.6147 86.2711 42.3044 86.1419 41.9554C86.0135 41.6063 85.9492 41.2495 85.9492 40.8849C85.9492 40.5033 86.0169 40.1387 86.1537 39.7896C86.2911 39.4406 86.4803 39.1319 86.7214 38.8634C86.9638 38.595 87.2491 38.3818 87.5792 38.2227C87.91 38.0645 88.2685 37.9854 88.6546 37.9854C89.0572 37.9854 89.4226 38.0699 89.75 38.239C90.0774 38.4081 90.3585 38.63 90.5954 38.9038C90.8309 39.1776 91.0139 39.4871 91.1431 39.8339C91.2715 40.1798 91.3365 40.5328 91.3365 40.8927C91.3365 41.2736 91.2681 41.6389 91.1307 41.9879C90.9939 42.337 90.8053 42.6442 90.5678 42.9095C90.3281 43.1755 90.0435 43.3881 89.7134 43.5463C89.3832 43.7046 89.0248 43.7837 88.638 43.7837Z" fill="white"></path><path d="M94.3075 38.0255L96.2 42.8333L98.0841 38.0255H98.8501L96.5142 43.7432H95.8864L93.543 38.0255H94.3075Z" fill="white"></path><path d="M103.23 38.8632L102.167 41.5045H104.262L103.23 38.8632ZM100.581 43.7432L102.933 38.0255H103.529L105.872 43.7432H105.099L104.422 42.0684H102.023L101.354 43.7432H100.581Z" fill="white"></path><path d="M110.357 44.7578C110.427 44.795 110.527 44.8308 110.659 44.8626C110.791 44.8951 110.927 44.9107 111.066 44.9107C111.211 44.9107 111.324 44.8897 111.404 44.8462C111.485 44.8036 111.525 44.7307 111.525 44.6291C111.525 44.5213 111.487 44.4476 111.412 44.4072C111.337 44.3677 111.237 44.3475 111.114 44.3475C111.001 44.3475 110.884 44.3591 110.76 44.3832C110.636 44.4072 110.54 44.4305 110.47 44.4522L110.824 43.7836C110.454 43.7619 110.112 43.6626 109.802 43.4857C109.491 43.3081 109.223 43.0831 109 42.8093C108.778 42.5354 108.605 42.2267 108.48 41.8831C108.357 41.5394 108.296 41.1935 108.296 40.8445C108.296 40.5008 108.357 40.1587 108.477 39.8174C108.598 39.4769 108.775 39.1705 109.008 38.899C109.241 38.6283 109.528 38.4096 109.866 38.2428C110.204 38.0767 110.588 37.993 111.018 37.993C111.528 37.993 111.965 38.1085 112.33 38.3397C112.695 38.5709 112.966 38.8711 113.143 39.2419L112.572 39.6119C112.486 39.4296 112.383 39.2768 112.262 39.1527C112.141 39.0293 112.009 38.9301 111.867 38.8548C111.724 38.7795 111.579 38.726 111.428 38.6942C111.278 38.6616 111.13 38.6453 110.985 38.6453C110.669 38.6453 110.388 38.7113 110.143 38.8431C109.9 38.9743 109.694 39.1464 109.528 39.3582C109.361 39.5707 109.237 39.8096 109.153 40.0749C109.07 40.341 109.028 40.6078 109.028 40.8762C109.028 41.1772 109.078 41.4627 109.177 41.7342C109.277 42.0049 109.415 42.2453 109.592 42.4548C109.769 42.6642 109.978 42.8302 110.22 42.9543C110.462 43.0777 110.724 43.139 111.01 43.139C111.16 43.139 111.314 43.1204 111.472 43.0831C111.63 43.0451 111.782 42.9853 111.927 42.9016C112.072 42.8186 112.208 42.7138 112.334 42.5874C112.461 42.4618 112.564 42.3098 112.644 42.1328L113.248 42.4625C113.162 42.6611 113.046 42.8388 112.898 42.9947C112.75 43.1499 112.584 43.284 112.398 43.3973C112.213 43.5098 112.018 43.5982 111.811 43.6626C111.604 43.7269 111.396 43.7673 111.187 43.7836L110.969 44.1295C111.012 44.1141 111.061 44.1031 111.114 44.0977C111.168 44.0923 111.217 44.0892 111.259 44.0892C111.447 44.0892 111.601 44.1326 111.718 44.2187C111.836 44.304 111.895 44.4329 111.895 44.605C111.895 44.7928 111.82 44.9402 111.671 45.0479C111.52 45.155 111.3 45.2085 111.01 45.2085C110.849 45.2085 110.7 45.1938 110.563 45.1644C110.426 45.1349 110.304 45.0991 110.197 45.0557L110.357 44.7578Z" fill="white"></path><path d="M118.225 38.8632L117.162 41.5045H119.256L118.225 38.8632ZM118.724 37.1963C118.6 37.1963 118.495 37.1785 118.406 37.1436C118.317 37.1086 118.234 37.0698 118.157 37.0272C118.079 36.9838 118.002 36.945 117.927 36.9101C117.852 36.8752 117.772 36.8581 117.685 36.8581C117.594 36.8581 117.523 36.8767 117.472 36.914C117.421 36.9519 117.382 36.9938 117.356 37.0388C117.328 37.0846 117.311 37.1288 117.303 37.1722C117.295 37.2149 117.29 37.239 117.29 37.2444H116.872C116.872 37.2118 116.884 37.1505 116.908 37.059C116.933 36.9683 116.974 36.8737 117.033 36.7774C117.092 36.6805 117.173 36.5959 117.275 36.5238C117.376 36.4508 117.508 36.4152 117.669 36.4152C117.782 36.4152 117.881 36.4323 117.968 36.4671C118.053 36.5021 118.135 36.5424 118.213 36.5881C118.29 36.6339 118.369 36.6743 118.446 36.7091C118.524 36.7441 118.611 36.7612 118.708 36.7612C118.81 36.7612 118.89 36.7425 118.95 36.7045C119.009 36.6672 119.054 36.6246 119.087 36.5757C119.119 36.5276 119.139 36.4834 119.147 36.4431C119.155 36.4028 119.159 36.3771 119.159 36.3663H119.578C119.578 36.3989 119.565 36.4594 119.542 36.5478C119.518 36.6362 119.473 36.7293 119.409 36.8255C119.344 36.9225 119.256 37.0086 119.147 37.0831C119.038 37.1583 118.896 37.1963 118.724 37.1963ZM115.575 43.7432L117.927 38.0255H118.523L120.866 43.7432H120.093L119.417 42.0684H117.017L116.349 43.7432H115.575Z" fill="white"></path><path d="M124.023 40.8849C124.023 41.1743 124.07 41.4551 124.164 41.7258C124.258 41.9973 124.391 42.2378 124.563 42.4472C124.735 42.6558 124.942 42.8226 125.183 42.946C125.424 43.07 125.693 43.1314 125.989 43.1314C126.294 43.1314 126.568 43.0654 126.809 42.9343C127.051 42.8024 127.257 42.631 127.426 42.4185C127.595 42.2067 127.724 41.9662 127.812 41.6979C127.901 41.4295 127.945 41.158 127.945 40.8849C127.945 40.5949 127.898 40.314 127.805 40.0433C127.71 39.7719 127.576 39.5329 127.401 39.3265C127.226 39.1194 127.021 38.9542 126.782 38.8309C126.543 38.7075 126.278 38.6455 125.989 38.6455C125.682 38.6455 125.409 38.7099 125.167 38.8394C124.925 38.9682 124.719 39.1373 124.551 39.3467C124.382 39.5561 124.251 39.7951 124.161 40.0634C124.069 40.3318 124.023 40.6057 124.023 40.8849ZM125.98 43.7837C125.578 43.7837 125.211 43.7015 124.881 43.5378C124.551 43.3741 124.268 43.1569 124.031 42.8855C123.795 42.6147 123.613 42.3044 123.484 41.9554C123.355 41.6063 123.291 41.2495 123.291 40.8849C123.291 40.5033 123.359 40.1387 123.495 39.7896C123.633 39.4406 123.822 39.1319 124.063 38.8634C124.306 38.595 124.591 38.3818 124.921 38.2227C125.252 38.0645 125.61 37.9854 125.996 37.9854C126.399 37.9854 126.764 38.0699 127.092 38.239C127.419 38.4081 127.7 38.63 127.937 38.9038C128.173 39.1776 128.356 39.4871 128.485 39.8339C128.613 40.1798 128.678 40.5328 128.678 40.8927C128.678 41.2736 128.61 41.6389 128.472 41.9879C128.336 42.337 128.147 42.6442 127.91 42.9095C127.67 43.1755 127.385 43.3881 127.055 43.5463C126.725 43.7046 126.367 43.7837 125.98 43.7837Z" fill="white"></path><path d="M139.621 43.0986V43.7432H135.739V38.0255H139.549V38.6701H136.464V40.5217H139.146V41.126H136.464V43.0986H139.621Z" fill="white"></path><path d="M150.485 42.7689V43.7432H146.515V38.0255H150.413V38.9998H147.627V40.3766H150.034V41.2788H147.627V42.7689H150.485Z" fill="white"></path><path d="M157.169 40.8762C157.169 40.6024 157.132 40.3502 157.057 40.1191C156.981 39.8887 156.872 39.6902 156.726 39.5234C156.581 39.3573 156.403 39.2278 156.191 39.1371C155.978 39.0456 155.739 38.9998 155.471 38.9998H154.504V42.7689H155.471C155.744 42.7689 155.987 42.7208 156.199 42.6238C156.412 42.5269 156.588 42.3942 156.73 42.2251C156.873 42.0561 156.981 41.8559 157.057 41.6255C157.132 41.3944 157.169 41.1446 157.169 40.8762ZM153.393 43.7432V38.0255H155.471C155.938 38.0255 156.347 38.1007 156.698 38.2513C157.05 38.4018 157.344 38.605 157.58 38.8632C157.816 39.1208 157.994 39.4225 158.112 39.7692C158.229 40.1152 158.289 40.4845 158.289 40.8762C158.289 41.3114 158.222 41.7047 158.091 42.0561C157.96 42.4075 157.77 42.7084 157.523 42.9581C157.277 43.2079 156.98 43.4011 156.634 43.5376C156.287 43.6749 155.9 43.7432 155.471 43.7432H153.393Z" fill="white"></path><path d="M163.595 42.8009C163.858 42.8009 164.08 42.7474 164.259 42.6404C164.439 42.5325 164.584 42.3929 164.694 42.2214C164.804 42.0492 164.882 41.8522 164.928 41.6296C164.973 41.4069 164.996 41.1774 164.996 40.9407V38.0257H166.099V40.9407C166.099 41.3325 166.052 41.701 165.958 42.0438C165.864 42.3875 165.717 42.6884 165.515 42.946C165.315 43.2035 165.055 43.4082 164.738 43.558C164.421 43.7085 164.043 43.7837 163.603 43.7837C163.146 43.7837 162.758 43.7046 162.44 43.5463C162.12 43.3881 161.861 43.1787 161.662 42.918C161.464 42.6574 161.32 42.3557 161.231 42.012C161.143 41.6684 161.099 41.3116 161.099 40.9407V38.0257H162.21V40.9407C162.21 41.1828 162.233 41.4148 162.278 41.6374C162.324 41.86 162.402 42.0578 162.512 42.2292C162.622 42.4015 162.765 42.5395 162.942 42.6442C163.12 42.7489 163.337 42.8009 163.595 42.8009Z" fill="white"></path><path d="M168.886 40.8446C168.886 40.4956 168.947 40.1504 169.071 39.8098C169.194 39.4685 169.373 39.1637 169.606 38.8953C169.84 38.6269 170.126 38.4097 170.464 38.2429C170.802 38.0769 171.188 37.9932 171.624 37.9932C172.133 37.9932 172.575 38.1087 172.948 38.3399C173.322 38.5711 173.596 38.8712 173.774 39.242L172.92 39.83C172.856 39.6686 172.772 39.5329 172.671 39.4227C172.568 39.3126 172.457 39.2257 172.336 39.1614C172.215 39.0969 172.09 39.0496 171.962 39.0202C171.833 38.9907 171.71 38.9759 171.591 38.9759C171.328 38.9759 171.098 39.0326 170.899 39.145C170.699 39.2575 170.535 39.4041 170.403 39.5841C170.272 39.7641 170.172 39.968 170.105 40.1961C170.038 40.4242 170.005 40.6507 170.005 40.8764C170.005 41.1293 170.043 41.372 170.122 41.6055C170.199 41.8391 170.31 42.0438 170.451 42.2214C170.594 42.3984 170.765 42.5411 170.963 42.6481C171.162 42.7559 171.379 42.8094 171.616 42.8094C171.739 42.8094 171.865 42.7932 171.994 42.7605C172.123 42.7288 172.248 42.6776 172.368 42.6078C172.49 42.5379 172.601 42.448 172.702 42.3379C172.805 42.2284 172.888 42.095 172.952 41.9399L173.862 42.4627C173.776 42.6776 173.651 42.8668 173.488 43.0305C173.324 43.1942 173.138 43.333 172.928 43.4455C172.719 43.558 172.499 43.6441 172.268 43.703C172.037 43.762 171.809 43.7915 171.584 43.7915C171.186 43.7915 170.822 43.7061 170.492 43.5339C170.162 43.3625 169.878 43.1383 169.639 42.8614C169.4 42.5853 169.214 42.2711 169.083 41.9197C168.951 41.5675 168.886 41.2092 168.886 40.8446Z" fill="white"></path><path d="M178.679 39.2255L177.857 41.5362H179.476L178.679 39.2255ZM175.973 43.7432L178.228 38.0255H179.129L181.376 43.7432H180.2L179.677 42.3175H177.672L177.148 43.7432H175.973Z" fill="white"></path><path d="M185.733 44.7656C185.797 44.8036 185.897 44.8385 186.031 44.8704C186.165 44.9029 186.305 44.9192 186.45 44.9192C186.589 44.9192 186.699 44.899 186.78 44.8587C186.861 44.8183 186.901 44.7501 186.901 44.6531C186.901 44.557 186.861 44.4879 186.784 44.4476C186.707 44.4073 186.606 44.3879 186.482 44.3879C186.369 44.3879 186.249 44.3995 186.124 44.4235C185.997 44.4476 185.902 44.4677 185.838 44.4841L186.192 43.7836C185.821 43.7564 185.481 43.6548 185.17 43.4772C184.858 43.3003 184.593 43.0746 184.372 42.8007C184.152 42.527 183.981 42.2198 183.856 41.8793C183.733 41.5379 183.672 41.1935 183.672 40.8445C183.672 40.4954 183.733 40.1502 183.856 39.8096C183.981 39.4684 184.159 39.1635 184.392 38.8951C184.626 38.6267 184.912 38.4096 185.249 38.2428C185.588 38.0768 185.975 37.993 186.409 37.993C186.919 37.993 187.361 38.1085 187.734 38.3398C188.107 38.5709 188.383 38.8711 188.56 39.2419L187.706 39.8298C187.642 39.6685 187.558 39.5327 187.457 39.4226C187.354 39.3124 187.243 39.2256 187.122 39.1612C187.001 39.0968 186.877 39.0495 186.747 39.0201C186.619 38.9906 186.495 38.9758 186.377 38.9758C186.115 38.9758 185.883 39.0324 185.684 39.1449C185.486 39.2574 185.321 39.404 185.19 39.584C185.058 39.7639 184.959 39.9679 184.891 40.1959C184.825 40.4241 184.791 40.6505 184.791 40.8762C184.791 41.1292 184.83 41.3719 184.907 41.6054C184.985 41.8389 185.095 42.0437 185.238 42.2213C185.38 42.3982 185.551 42.5409 185.749 42.648C185.948 42.7558 186.165 42.8093 186.401 42.8093C186.525 42.8093 186.651 42.793 186.78 42.7604C186.909 42.7287 187.034 42.6775 187.155 42.6076C187.275 42.5378 187.387 42.4479 187.489 42.3377C187.591 42.2283 187.674 42.0949 187.738 41.9397L188.648 42.4625C188.568 42.6557 188.458 42.828 188.318 42.9784C188.179 43.1289 188.02 43.26 187.843 43.3724C187.666 43.4857 187.475 43.5757 187.271 43.6424C187.067 43.7099 186.863 43.7542 186.659 43.7758L186.466 44.0815C186.503 44.0706 186.545 44.0628 186.591 44.0574C186.637 44.052 186.681 44.0496 186.723 44.0496C186.911 44.0496 187.073 44.0939 187.207 44.1823C187.341 44.2707 187.408 44.4142 187.408 44.6128C187.408 44.8167 187.324 44.9859 187.155 45.1201C186.986 45.2543 186.727 45.3218 186.377 45.3218C186.2 45.3218 186.04 45.3055 185.894 45.2737C185.749 45.2411 185.623 45.2031 185.516 45.1604L185.733 44.7656Z" fill="white"></path><path d="M193.544 39.2255L192.722 41.5362H194.341L193.544 39.2255ZM194.051 37.4058C193.928 37.4058 193.82 37.3863 193.729 37.3491C193.638 37.3118 193.553 37.27 193.476 37.2243C193.398 37.1785 193.319 37.1374 193.242 37.0993C193.163 37.0621 193.082 37.0427 192.996 37.0427C192.904 37.0427 192.834 37.0621 192.783 37.0993C192.732 37.1374 192.693 37.18 192.665 37.2281C192.639 37.277 192.623 37.3212 192.618 37.3615C192.612 37.4011 192.609 37.4243 192.609 37.4297H192.013C192.013 37.3809 192.029 37.2995 192.062 37.1839C192.094 37.0683 192.147 36.9535 192.219 36.838C192.292 36.7223 192.388 36.62 192.509 36.5315C192.63 36.4431 192.779 36.3989 192.956 36.3989C193.079 36.3989 193.185 36.4191 193.274 36.4594C193.362 36.4997 193.446 36.5424 193.524 36.5881C193.601 36.6339 193.679 36.6765 193.757 36.7169C193.835 36.7572 193.922 36.7774 194.019 36.7774C194.115 36.7774 194.192 36.7587 194.248 36.7208C194.304 36.6836 194.347 36.6402 194.378 36.592C194.407 36.5439 194.426 36.4981 194.434 36.4555C194.442 36.4121 194.446 36.3857 194.446 36.3749H195.041C195.041 36.4121 195.025 36.4873 194.994 36.5998C194.961 36.713 194.906 36.8286 194.829 36.9465C194.75 37.0644 194.648 37.1707 194.522 37.2646C194.396 37.3584 194.239 37.4058 194.051 37.4058ZM190.838 43.7432L193.093 38.0255H193.994L196.242 43.7432H195.066L194.542 42.3175H192.537L192.013 43.7432H190.838Z" fill="white"></path><path d="M199.657 40.8849C199.657 41.1316 199.692 41.3705 199.765 41.6009C199.837 41.8321 199.942 42.0361 200.079 42.2129C200.216 42.3906 200.383 42.5325 200.583 42.6404C200.781 42.7474 201.006 42.8009 201.259 42.8009C201.517 42.8009 201.743 42.7458 201.939 42.6364C202.135 42.5263 202.3 42.3797 202.435 42.1974C202.569 42.0151 202.671 41.8096 202.741 41.5815C202.81 41.3527 202.846 41.1207 202.846 40.8849C202.846 40.6375 202.808 40.3986 202.732 40.1682C202.657 39.937 202.551 39.733 202.414 39.5561C202.278 39.3785 202.111 39.2373 201.915 39.1326C201.719 39.0287 201.497 38.9759 201.251 38.9759C200.993 38.9759 200.767 39.031 200.57 39.1412C200.374 39.2513 200.208 39.3963 200.071 39.5756C199.934 39.7555 199.83 39.9595 199.761 40.1876C199.691 40.4164 199.657 40.6483 199.657 40.8849ZM201.242 43.7837C200.84 43.7837 200.472 43.7015 200.139 43.5378C199.807 43.3741 199.521 43.1569 199.282 42.8855C199.043 42.6147 198.859 42.3044 198.73 41.9554C198.601 41.6063 198.537 41.2495 198.537 40.8849C198.537 40.5033 198.605 40.1387 198.742 39.7896C198.879 39.4406 199.07 39.1319 199.313 38.8634C199.558 38.595 199.847 38.3818 200.18 38.2227C200.513 38.0645 200.875 37.9854 201.267 37.9854C201.669 37.9854 202.037 38.0699 202.37 38.239C202.703 38.4081 202.987 38.63 203.224 38.9038C203.46 39.1776 203.643 39.4887 203.772 39.8377C203.9 40.1867 203.965 40.5413 203.965 40.9004C203.965 41.2821 203.897 41.6459 203.759 41.9918C203.623 42.3378 203.433 42.6442 203.192 42.9095C202.95 43.1755 202.662 43.3881 202.33 43.5463C201.997 43.7046 201.635 43.7837 201.242 43.7837Z" fill="white"></path></g><defs><clipPath id="clip0_223_17848"><rect width="204" height="45.322" fill="white"></rect></clipPath></defs></svg>